<mxfile host="app.diagrams.net" agent="Mozilla/5.0 (Macintosh; Intel Mac OS X 10_15_7) AppleWebKit/537.36 (KHTML, like Gecko) Chrome/127.0.0.0 Safari/537.36" version="24.7.6">
  <diagram id="C5RBs43oDa-KdzZeNtuy" name="Page-1">
    <mxGraphModel dx="4274" dy="3082" grid="1" gridSize="10" guides="1" tooltips="1" connect="1" arrows="1" fold="1" page="1" pageScale="1" pageWidth="827" pageHeight="1169" math="0" shadow="0">
      <root>
        <mxCell id="WIyWlLk6GJQsqaUBKTNV-0" />
        <mxCell id="WIyWlLk6GJQsqaUBKTNV-1" parent="WIyWlLk6GJQsqaUBKTNV-0" />
        <mxCell id="BWipgjC80R4UF_NCCVxM-203" value="&lt;font style=&quot;font-size: 26px;&quot;&gt;供给产品表&lt;/font&gt;" style="rhombus;whiteSpace=wrap;html=1;fontSize=20;" parent="WIyWlLk6GJQsqaUBKTNV-1" vertex="1">
          <mxGeometry x="735" y="90" width="210" height="130" as="geometry" />
        </mxCell>
        <mxCell id="eW1roao2XsK2nCmsk1pP-12" value="二 重新计算融合模型&#xa;PD、得分" style="shape=table;startSize=70;container=1;collapsible=0;childLayout=tableLayout;fixedRows=1;rowLines=0;fontStyle=0;strokeColor=default;fontSize=24;labelBackgroundColor=none;verticalAlign=top;horizontal=1;" parent="WIyWlLk6GJQsqaUBKTNV-1" vertex="1">
          <mxGeometry x="670" y="-530" width="320" height="420" as="geometry" />
        </mxCell>
        <mxCell id="eW1roao2XsK2nCmsk1pP-13" value="" style="shape=tableRow;horizontal=0;startSize=0;swimlaneHead=0;swimlaneBody=0;top=0;left=0;bottom=0;right=0;collapsible=0;dropTarget=0;fillColor=none;points=[[0,0.5],[1,0.5]];portConstraint=eastwest;strokeColor=inherit;fontSize=24;verticalAlign=top;" parent="eW1roao2XsK2nCmsk1pP-12" vertex="1">
          <mxGeometry y="70" width="320" height="70" as="geometry" />
        </mxCell>
        <mxCell id="eW1roao2XsK2nCmsk1pP-14" value="step1" style="shape=partialRectangle;html=1;whiteSpace=wrap;connectable=0;fillColor=none;top=0;left=0;bottom=0;right=0;overflow=hidden;pointerEvents=1;strokeColor=inherit;fontSize=24;verticalAlign=top;" parent="eW1roao2XsK2nCmsk1pP-13" vertex="1">
          <mxGeometry width="80" height="70" as="geometry">
            <mxRectangle width="80" height="70" as="alternateBounds" />
          </mxGeometry>
        </mxCell>
        <mxCell id="eW1roao2XsK2nCmsk1pP-15" value="if 各子分均为空，返回-9999" style="shape=partialRectangle;html=1;whiteSpace=wrap;connectable=0;fillColor=none;top=0;left=0;bottom=0;right=0;align=left;spacingLeft=6;overflow=hidden;strokeColor=inherit;fontSize=24;verticalAlign=top;" parent="eW1roao2XsK2nCmsk1pP-13" vertex="1">
          <mxGeometry x="80" width="240" height="70" as="geometry">
            <mxRectangle width="240" height="70" as="alternateBounds" />
          </mxGeometry>
        </mxCell>
        <mxCell id="eW1roao2XsK2nCmsk1pP-16" value="" style="shape=tableRow;horizontal=0;startSize=0;swimlaneHead=0;swimlaneBody=0;top=0;left=0;bottom=0;right=0;collapsible=0;dropTarget=0;fillColor=none;points=[[0,0.5],[1,0.5]];portConstraint=eastwest;strokeColor=inherit;fontSize=24;verticalAlign=top;" parent="eW1roao2XsK2nCmsk1pP-12" vertex="1">
          <mxGeometry y="140" width="320" height="80" as="geometry" />
        </mxCell>
        <mxCell id="eW1roao2XsK2nCmsk1pP-17" value="step2" style="shape=partialRectangle;html=1;whiteSpace=wrap;connectable=0;fillColor=none;top=0;left=0;bottom=0;right=0;overflow=hidden;strokeColor=inherit;fontSize=24;verticalAlign=top;" parent="eW1roao2XsK2nCmsk1pP-16" vertex="1">
          <mxGeometry width="80" height="80" as="geometry">
            <mxRectangle width="80" height="80" as="alternateBounds" />
          </mxGeometry>
        </mxCell>
        <mxCell id="eW1roao2XsK2nCmsk1pP-18" value="if 财务评级为D，返回-66" style="shape=partialRectangle;html=1;whiteSpace=wrap;connectable=0;fillColor=none;top=0;left=0;bottom=0;right=0;align=left;spacingLeft=6;overflow=hidden;strokeColor=inherit;fontSize=24;verticalAlign=top;" parent="eW1roao2XsK2nCmsk1pP-16" vertex="1">
          <mxGeometry x="80" width="240" height="80" as="geometry">
            <mxRectangle width="240" height="80" as="alternateBounds" />
          </mxGeometry>
        </mxCell>
        <mxCell id="eW1roao2XsK2nCmsk1pP-19" value="" style="shape=tableRow;horizontal=0;startSize=0;swimlaneHead=0;swimlaneBody=0;top=0;left=0;bottom=0;right=0;collapsible=0;dropTarget=0;fillColor=none;points=[[0,0.5],[1,0.5]];portConstraint=eastwest;strokeColor=inherit;fontSize=24;verticalAlign=top;" parent="eW1roao2XsK2nCmsk1pP-12" vertex="1">
          <mxGeometry y="220" width="320" height="100" as="geometry" />
        </mxCell>
        <mxCell id="eW1roao2XsK2nCmsk1pP-20" value="step3" style="shape=partialRectangle;html=1;whiteSpace=wrap;connectable=0;fillColor=none;top=0;left=0;bottom=0;right=0;overflow=hidden;strokeColor=inherit;fontSize=24;verticalAlign=top;" parent="eW1roao2XsK2nCmsk1pP-19" vertex="1">
          <mxGeometry width="80" height="100" as="geometry">
            <mxRectangle width="80" height="100" as="alternateBounds" />
          </mxGeometry>
        </mxCell>
        <mxCell id="eW1roao2XsK2nCmsk1pP-21" value="计算融合得分，根据各子模型权重，计算融合得分。" style="shape=partialRectangle;html=1;whiteSpace=wrap;connectable=0;fillColor=none;top=0;left=0;bottom=0;right=0;align=left;spacingLeft=6;overflow=hidden;strokeColor=inherit;fontSize=24;verticalAlign=top;" parent="eW1roao2XsK2nCmsk1pP-19" vertex="1">
          <mxGeometry x="80" width="240" height="100" as="geometry">
            <mxRectangle width="240" height="100" as="alternateBounds" />
          </mxGeometry>
        </mxCell>
        <mxCell id="p7HOfpMz6Ps_uLDgcZ0B-0" value="" style="shape=tableRow;horizontal=0;startSize=0;swimlaneHead=0;swimlaneBody=0;top=0;left=0;bottom=0;right=0;collapsible=0;dropTarget=0;fillColor=none;points=[[0,0.5],[1,0.5]];portConstraint=eastwest;strokeColor=inherit;fontSize=24;verticalAlign=top;" vertex="1" parent="eW1roao2XsK2nCmsk1pP-12">
          <mxGeometry y="320" width="320" height="100" as="geometry" />
        </mxCell>
        <mxCell id="p7HOfpMz6Ps_uLDgcZ0B-1" value="step4" style="shape=partialRectangle;html=1;whiteSpace=wrap;connectable=0;fillColor=none;top=0;left=0;bottom=0;right=0;overflow=hidden;strokeColor=inherit;fontSize=24;verticalAlign=top;" vertex="1" parent="p7HOfpMz6Ps_uLDgcZ0B-0">
          <mxGeometry width="80" height="100" as="geometry">
            <mxRectangle width="80" height="100" as="alternateBounds" />
          </mxGeometry>
        </mxCell>
        <mxCell id="p7HOfpMz6Ps_uLDgcZ0B-2" value="计算融合PD。&lt;br style=&quot;font-size: 24px;&quot;&gt;PD=e^[(A-s)/B] / {1+e^[(A-s)/B]}" style="shape=partialRectangle;html=1;whiteSpace=wrap;connectable=0;fillColor=none;top=0;left=0;bottom=0;right=0;align=left;spacingLeft=6;overflow=hidden;strokeColor=inherit;fontSize=24;verticalAlign=top;" vertex="1" parent="p7HOfpMz6Ps_uLDgcZ0B-0">
          <mxGeometry x="80" width="240" height="100" as="geometry">
            <mxRectangle width="240" height="100" as="alternateBounds" />
          </mxGeometry>
        </mxCell>
        <mxCell id="eW1roao2XsK2nCmsk1pP-2" value="三 融合模型校准PD、得分" style="shape=table;startSize=80;container=1;collapsible=0;childLayout=tableLayout;fixedRows=1;rowLines=0;fontStyle=0;strokeColor=default;fontSize=24;shadow=0;verticalAlign=top;" parent="WIyWlLk6GJQsqaUBKTNV-1" vertex="1">
          <mxGeometry x="1060" y="-530" width="599" height="570" as="geometry" />
        </mxCell>
        <mxCell id="eW1roao2XsK2nCmsk1pP-3" value="" style="shape=tableRow;horizontal=0;startSize=0;swimlaneHead=0;swimlaneBody=0;top=0;left=0;bottom=0;right=0;collapsible=0;dropTarget=0;fillColor=none;points=[[0,0.5],[1,0.5]];portConstraint=eastwest;strokeColor=inherit;fontSize=24;verticalAlign=top;" parent="eW1roao2XsK2nCmsk1pP-2" vertex="1">
          <mxGeometry y="80" width="599" height="40" as="geometry" />
        </mxCell>
        <mxCell id="eW1roao2XsK2nCmsk1pP-4" value="step1" style="shape=partialRectangle;html=1;whiteSpace=wrap;connectable=0;fillColor=none;top=0;left=0;bottom=0;right=0;overflow=hidden;pointerEvents=1;strokeColor=inherit;fontSize=24;verticalAlign=top;" parent="eW1roao2XsK2nCmsk1pP-3" vertex="1">
          <mxGeometry width="80" height="40" as="geometry">
            <mxRectangle width="80" height="40" as="alternateBounds" />
          </mxGeometry>
        </mxCell>
        <mxCell id="eW1roao2XsK2nCmsk1pP-5" value="计算加权PD" style="shape=partialRectangle;html=1;whiteSpace=wrap;connectable=0;fillColor=none;top=0;left=0;bottom=0;right=0;align=left;spacingLeft=6;overflow=hidden;strokeColor=inherit;fontSize=24;verticalAlign=top;" parent="eW1roao2XsK2nCmsk1pP-3" vertex="1">
          <mxGeometry x="80" width="177" height="40" as="geometry">
            <mxRectangle width="177" height="40" as="alternateBounds" />
          </mxGeometry>
        </mxCell>
        <mxCell id="eW1roao2XsK2nCmsk1pP-26" value="" style="shape=partialRectangle;html=1;whiteSpace=wrap;connectable=0;fillColor=none;top=0;left=0;bottom=0;right=0;align=left;spacingLeft=6;overflow=hidden;strokeColor=inherit;fontSize=24;verticalAlign=top;" parent="eW1roao2XsK2nCmsk1pP-3" vertex="1">
          <mxGeometry x="257" width="342" height="40" as="geometry">
            <mxRectangle width="342" height="40" as="alternateBounds" />
          </mxGeometry>
        </mxCell>
        <mxCell id="eW1roao2XsK2nCmsk1pP-6" value="" style="shape=tableRow;horizontal=0;startSize=0;swimlaneHead=0;swimlaneBody=0;top=0;left=0;bottom=0;right=0;collapsible=0;dropTarget=0;fillColor=none;points=[[0,0.5],[1,0.5]];portConstraint=eastwest;strokeColor=inherit;fontSize=24;verticalAlign=top;" parent="eW1roao2XsK2nCmsk1pP-2" vertex="1">
          <mxGeometry y="120" width="599" height="90" as="geometry" />
        </mxCell>
        <mxCell id="eW1roao2XsK2nCmsk1pP-7" value="step2" style="shape=partialRectangle;html=1;whiteSpace=wrap;connectable=0;fillColor=none;top=0;left=0;bottom=0;right=0;overflow=hidden;strokeColor=inherit;fontSize=24;verticalAlign=top;" parent="eW1roao2XsK2nCmsk1pP-6" vertex="1">
          <mxGeometry width="80" height="90" as="geometry">
            <mxRectangle width="80" height="90" as="alternateBounds" />
          </mxGeometry>
        </mxCell>
        <mxCell id="eW1roao2XsK2nCmsk1pP-8" value="融合异常检测校准PD" style="shape=partialRectangle;html=1;whiteSpace=wrap;connectable=0;fillColor=none;top=0;left=0;bottom=0;right=0;align=left;spacingLeft=6;overflow=hidden;strokeColor=inherit;fontSize=24;verticalAlign=top;" parent="eW1roao2XsK2nCmsk1pP-6" vertex="1">
          <mxGeometry x="80" width="177" height="90" as="geometry">
            <mxRectangle width="177" height="90" as="alternateBounds" />
          </mxGeometry>
        </mxCell>
        <mxCell id="eW1roao2XsK2nCmsk1pP-27" value="如果有近一年内评结果，睿分评级与内评评级上下不超过两档。" style="shape=partialRectangle;html=1;whiteSpace=wrap;connectable=0;fillColor=none;top=0;left=0;bottom=0;right=0;align=left;spacingLeft=6;overflow=hidden;strokeColor=inherit;fontSize=24;verticalAlign=top;" parent="eW1roao2XsK2nCmsk1pP-6" vertex="1">
          <mxGeometry x="257" width="342" height="90" as="geometry">
            <mxRectangle width="342" height="90" as="alternateBounds" />
          </mxGeometry>
        </mxCell>
        <mxCell id="eW1roao2XsK2nCmsk1pP-9" value="" style="shape=tableRow;horizontal=0;startSize=0;swimlaneHead=0;swimlaneBody=0;top=0;left=0;bottom=0;right=0;collapsible=0;dropTarget=0;fillColor=none;points=[[0,0.5],[1,0.5]];portConstraint=eastwest;strokeColor=inherit;fontSize=24;verticalAlign=top;" parent="eW1roao2XsK2nCmsk1pP-2" vertex="1">
          <mxGeometry y="210" width="599" height="70" as="geometry" />
        </mxCell>
        <mxCell id="eW1roao2XsK2nCmsk1pP-10" value="" style="shape=partialRectangle;html=1;whiteSpace=wrap;connectable=0;fillColor=none;top=0;left=0;bottom=0;right=0;overflow=hidden;strokeColor=inherit;fontSize=24;verticalAlign=top;" parent="eW1roao2XsK2nCmsk1pP-9" vertex="1">
          <mxGeometry width="80" height="70" as="geometry">
            <mxRectangle width="80" height="70" as="alternateBounds" />
          </mxGeometry>
        </mxCell>
        <mxCell id="eW1roao2XsK2nCmsk1pP-11" value="r = 0\1\2\3（中低风险）" style="shape=partialRectangle;html=1;whiteSpace=wrap;connectable=0;fillColor=none;top=0;left=0;bottom=0;right=0;align=left;spacingLeft=6;overflow=hidden;strokeColor=inherit;fontSize=24;verticalAlign=top;" parent="eW1roao2XsK2nCmsk1pP-9" vertex="1">
          <mxGeometry x="80" width="177" height="70" as="geometry">
            <mxRectangle width="177" height="70" as="alternateBounds" />
          </mxGeometry>
        </mxCell>
        <mxCell id="eW1roao2XsK2nCmsk1pP-28" value="异常检测结果不对睿分产生校准。" style="shape=partialRectangle;html=1;whiteSpace=wrap;connectable=0;fillColor=none;top=0;left=0;bottom=0;right=0;align=left;spacingLeft=6;overflow=hidden;strokeColor=inherit;fontSize=24;verticalAlign=top;" parent="eW1roao2XsK2nCmsk1pP-9" vertex="1">
          <mxGeometry x="257" width="342" height="70" as="geometry">
            <mxRectangle width="342" height="70" as="alternateBounds" />
          </mxGeometry>
        </mxCell>
        <mxCell id="eW1roao2XsK2nCmsk1pP-29" value="" style="shape=tableRow;horizontal=0;startSize=0;swimlaneHead=0;swimlaneBody=0;top=0;left=0;bottom=0;right=0;collapsible=0;dropTarget=0;fillColor=none;points=[[0,0.5],[1,0.5]];portConstraint=eastwest;strokeColor=inherit;fontSize=24;verticalAlign=top;" parent="eW1roao2XsK2nCmsk1pP-2" vertex="1">
          <mxGeometry y="280" width="599" height="70" as="geometry" />
        </mxCell>
        <mxCell id="eW1roao2XsK2nCmsk1pP-30" value="" style="shape=partialRectangle;html=1;whiteSpace=wrap;connectable=0;fillColor=none;top=0;left=0;bottom=0;right=0;overflow=hidden;strokeColor=inherit;fontSize=24;verticalAlign=top;" parent="eW1roao2XsK2nCmsk1pP-29" vertex="1">
          <mxGeometry width="80" height="70" as="geometry">
            <mxRectangle width="80" height="70" as="alternateBounds" />
          </mxGeometry>
        </mxCell>
        <mxCell id="eW1roao2XsK2nCmsk1pP-31" value="r = 4（高风险）" style="shape=partialRectangle;html=1;whiteSpace=wrap;connectable=0;fillColor=none;top=0;left=0;bottom=0;right=0;align=left;spacingLeft=6;overflow=hidden;strokeColor=inherit;fontSize=24;verticalAlign=top;" parent="eW1roao2XsK2nCmsk1pP-29" vertex="1">
          <mxGeometry x="80" width="177" height="70" as="geometry">
            <mxRectangle width="177" height="70" as="alternateBounds" />
          </mxGeometry>
        </mxCell>
        <mxCell id="eW1roao2XsK2nCmsk1pP-32" value="PD = 0.1 + 0.5 * PD//if PD &amp;gt; 0.2 then PD" style="shape=partialRectangle;html=1;whiteSpace=wrap;connectable=0;fillColor=none;top=0;left=0;bottom=0;right=0;align=left;spacingLeft=6;overflow=hidden;strokeColor=inherit;fontSize=24;verticalAlign=top;" parent="eW1roao2XsK2nCmsk1pP-29" vertex="1">
          <mxGeometry x="257" width="342" height="70" as="geometry">
            <mxRectangle width="342" height="70" as="alternateBounds" />
          </mxGeometry>
        </mxCell>
        <mxCell id="eW1roao2XsK2nCmsk1pP-33" value="" style="shape=tableRow;horizontal=0;startSize=0;swimlaneHead=0;swimlaneBody=0;top=0;left=0;bottom=0;right=0;collapsible=0;dropTarget=0;fillColor=none;points=[[0,0.5],[1,0.5]];portConstraint=eastwest;strokeColor=inherit;fontSize=24;verticalAlign=top;" parent="eW1roao2XsK2nCmsk1pP-2" vertex="1">
          <mxGeometry y="350" width="599" height="70" as="geometry" />
        </mxCell>
        <mxCell id="eW1roao2XsK2nCmsk1pP-34" value="" style="shape=partialRectangle;html=1;whiteSpace=wrap;connectable=0;fillColor=none;top=0;left=0;bottom=0;right=0;overflow=hidden;strokeColor=inherit;fontSize=24;verticalAlign=top;" parent="eW1roao2XsK2nCmsk1pP-33" vertex="1">
          <mxGeometry width="80" height="70" as="geometry">
            <mxRectangle width="80" height="70" as="alternateBounds" />
          </mxGeometry>
        </mxCell>
        <mxCell id="eW1roao2XsK2nCmsk1pP-35" value="r = 5（极高风险）" style="shape=partialRectangle;html=1;whiteSpace=wrap;connectable=0;fillColor=none;top=0;left=0;bottom=0;right=0;align=left;spacingLeft=6;overflow=hidden;strokeColor=inherit;fontSize=24;verticalAlign=top;" parent="eW1roao2XsK2nCmsk1pP-33" vertex="1">
          <mxGeometry x="80" width="177" height="70" as="geometry">
            <mxRectangle width="177" height="70" as="alternateBounds" />
          </mxGeometry>
        </mxCell>
        <mxCell id="eW1roao2XsK2nCmsk1pP-36" value="PD = 0.526//if PD &amp;gt;0.526 then PD&amp;nbsp;&amp;nbsp;" style="shape=partialRectangle;html=1;whiteSpace=wrap;connectable=0;fillColor=none;top=0;left=0;bottom=0;right=0;align=left;spacingLeft=6;overflow=hidden;strokeColor=inherit;fontSize=24;verticalAlign=top;" parent="eW1roao2XsK2nCmsk1pP-33" vertex="1">
          <mxGeometry x="257" width="342" height="70" as="geometry">
            <mxRectangle width="342" height="70" as="alternateBounds" />
          </mxGeometry>
        </mxCell>
        <mxCell id="p7HOfpMz6Ps_uLDgcZ0B-24" value="" style="shape=tableRow;horizontal=0;startSize=0;swimlaneHead=0;swimlaneBody=0;top=0;left=0;bottom=0;right=0;collapsible=0;dropTarget=0;fillColor=none;points=[[0,0.5],[1,0.5]];portConstraint=eastwest;strokeColor=inherit;fontSize=24;verticalAlign=top;" vertex="1" parent="eW1roao2XsK2nCmsk1pP-2">
          <mxGeometry y="420" width="599" height="70" as="geometry" />
        </mxCell>
        <mxCell id="p7HOfpMz6Ps_uLDgcZ0B-25" value="step3" style="shape=partialRectangle;html=1;whiteSpace=wrap;connectable=0;fillColor=none;top=0;left=0;bottom=0;right=0;overflow=hidden;strokeColor=inherit;fontSize=24;verticalAlign=top;" vertex="1" parent="p7HOfpMz6Ps_uLDgcZ0B-24">
          <mxGeometry width="80" height="70" as="geometry">
            <mxRectangle width="80" height="70" as="alternateBounds" />
          </mxGeometry>
        </mxCell>
        <mxCell id="p7HOfpMz6Ps_uLDgcZ0B-26" value="增信标签校准" style="shape=partialRectangle;html=1;whiteSpace=wrap;connectable=0;fillColor=none;top=0;left=0;bottom=0;right=0;align=left;spacingLeft=6;overflow=hidden;strokeColor=inherit;fontSize=24;verticalAlign=top;" vertex="1" parent="p7HOfpMz6Ps_uLDgcZ0B-24">
          <mxGeometry x="80" width="177" height="70" as="geometry">
            <mxRectangle width="177" height="70" as="alternateBounds" />
          </mxGeometry>
        </mxCell>
        <mxCell id="p7HOfpMz6Ps_uLDgcZ0B-27" value="基于专精特新、小巨人等标签，按照PD区间进行上调。" style="shape=partialRectangle;html=1;whiteSpace=wrap;connectable=0;fillColor=none;top=0;left=0;bottom=0;right=0;align=left;spacingLeft=6;overflow=hidden;strokeColor=inherit;fontSize=24;verticalAlign=top;" vertex="1" parent="p7HOfpMz6Ps_uLDgcZ0B-24">
          <mxGeometry x="257" width="342" height="70" as="geometry">
            <mxRectangle width="342" height="70" as="alternateBounds" />
          </mxGeometry>
        </mxCell>
        <mxCell id="p7HOfpMz6Ps_uLDgcZ0B-28" value="" style="shape=tableRow;horizontal=0;startSize=0;swimlaneHead=0;swimlaneBody=0;top=0;left=0;bottom=0;right=0;collapsible=0;dropTarget=0;fillColor=none;points=[[0,0.5],[1,0.5]];portConstraint=eastwest;strokeColor=inherit;fontSize=24;verticalAlign=top;" vertex="1" parent="eW1roao2XsK2nCmsk1pP-2">
          <mxGeometry y="490" width="599" height="80" as="geometry" />
        </mxCell>
        <mxCell id="p7HOfpMz6Ps_uLDgcZ0B-29" value="step4" style="shape=partialRectangle;html=1;whiteSpace=wrap;connectable=0;fillColor=none;top=0;left=0;bottom=0;right=0;overflow=hidden;strokeColor=inherit;fontSize=24;verticalAlign=top;" vertex="1" parent="p7HOfpMz6Ps_uLDgcZ0B-28">
          <mxGeometry width="80" height="80" as="geometry">
            <mxRectangle width="80" height="80" as="alternateBounds" />
          </mxGeometry>
        </mxCell>
        <mxCell id="p7HOfpMz6Ps_uLDgcZ0B-30" value="根据校准PD，转换得分" style="shape=partialRectangle;html=1;whiteSpace=wrap;connectable=0;fillColor=none;top=0;left=0;bottom=0;right=0;align=left;spacingLeft=6;overflow=hidden;strokeColor=inherit;fontSize=24;verticalAlign=top;" vertex="1" parent="p7HOfpMz6Ps_uLDgcZ0B-28">
          <mxGeometry x="80" width="177" height="80" as="geometry">
            <mxRectangle width="177" height="80" as="alternateBounds" />
          </mxGeometry>
        </mxCell>
        <mxCell id="p7HOfpMz6Ps_uLDgcZ0B-31" value="S = (a-b*ln(PD/(1-PD)))" style="shape=partialRectangle;html=1;whiteSpace=wrap;connectable=0;fillColor=none;top=0;left=0;bottom=0;right=0;align=left;spacingLeft=6;overflow=hidden;strokeColor=inherit;fontSize=24;verticalAlign=top;" vertex="1" parent="p7HOfpMz6Ps_uLDgcZ0B-28">
          <mxGeometry x="257" width="342" height="80" as="geometry">
            <mxRectangle width="342" height="80" as="alternateBounds" />
          </mxGeometry>
        </mxCell>
        <mxCell id="eW1roao2XsK2nCmsk1pP-45" value="一 异常检测校准子分，生成PD和子分&#xa;（征信、工商、图）" style="shape=table;startSize=70;container=1;collapsible=0;childLayout=tableLayout;fixedRows=1;rowLines=0;fontStyle=0;strokeColor=default;fontSize=24;shadow=0;verticalAlign=top;" parent="WIyWlLk6GJQsqaUBKTNV-1" vertex="1">
          <mxGeometry y="-530" width="600" height="500" as="geometry" />
        </mxCell>
        <mxCell id="eW1roao2XsK2nCmsk1pP-46" value="" style="shape=tableRow;horizontal=0;startSize=0;swimlaneHead=0;swimlaneBody=0;top=0;left=0;bottom=0;right=0;collapsible=0;dropTarget=0;fillColor=none;points=[[0,0.5],[1,0.5]];portConstraint=eastwest;strokeColor=inherit;fontSize=24;verticalAlign=top;" parent="eW1roao2XsK2nCmsk1pP-45" vertex="1">
          <mxGeometry y="70" width="600" height="70" as="geometry" />
        </mxCell>
        <mxCell id="eW1roao2XsK2nCmsk1pP-47" value="step1" style="shape=partialRectangle;html=1;whiteSpace=wrap;connectable=0;fillColor=none;top=0;left=0;bottom=0;right=0;overflow=hidden;pointerEvents=1;strokeColor=inherit;fontSize=24;verticalAlign=top;" parent="eW1roao2XsK2nCmsk1pP-46" vertex="1">
          <mxGeometry width="80" height="70" as="geometry">
            <mxRectangle width="80" height="70" as="alternateBounds" />
          </mxGeometry>
        </mxCell>
        <mxCell id="eW1roao2XsK2nCmsk1pP-48" value="计算PD" style="shape=partialRectangle;html=1;whiteSpace=wrap;connectable=0;fillColor=none;top=0;left=0;bottom=0;right=0;align=left;spacingLeft=6;overflow=hidden;strokeColor=inherit;fontSize=24;verticalAlign=top;" parent="eW1roao2XsK2nCmsk1pP-46" vertex="1">
          <mxGeometry x="80" width="210" height="70" as="geometry">
            <mxRectangle width="210" height="70" as="alternateBounds" />
          </mxGeometry>
        </mxCell>
        <mxCell id="eW1roao2XsK2nCmsk1pP-49" value="PD=e^[(A-s)/B] / {1+e^[(A-s)/B]}" style="shape=partialRectangle;html=1;whiteSpace=wrap;connectable=0;fillColor=none;top=0;left=0;bottom=0;right=0;align=left;spacingLeft=6;overflow=hidden;strokeColor=inherit;fontSize=24;verticalAlign=top;" parent="eW1roao2XsK2nCmsk1pP-46" vertex="1">
          <mxGeometry x="290" width="310" height="70" as="geometry">
            <mxRectangle width="310" height="70" as="alternateBounds" />
          </mxGeometry>
        </mxCell>
        <mxCell id="eW1roao2XsK2nCmsk1pP-50" value="" style="shape=tableRow;horizontal=0;startSize=0;swimlaneHead=0;swimlaneBody=0;top=0;left=0;bottom=0;right=0;collapsible=0;dropTarget=0;fillColor=none;points=[[0,0.5],[1,0.5]];portConstraint=eastwest;strokeColor=inherit;fontSize=24;verticalAlign=top;" parent="eW1roao2XsK2nCmsk1pP-45" vertex="1">
          <mxGeometry y="140" width="600" height="30" as="geometry" />
        </mxCell>
        <mxCell id="eW1roao2XsK2nCmsk1pP-51" value="step2" style="shape=partialRectangle;html=1;whiteSpace=wrap;connectable=0;fillColor=none;top=0;left=0;bottom=0;right=0;overflow=hidden;strokeColor=inherit;fontSize=24;verticalAlign=top;" parent="eW1roao2XsK2nCmsk1pP-50" vertex="1">
          <mxGeometry width="80" height="30" as="geometry">
            <mxRectangle width="80" height="30" as="alternateBounds" />
          </mxGeometry>
        </mxCell>
        <mxCell id="eW1roao2XsK2nCmsk1pP-52" value="子分异常检测校准" style="shape=partialRectangle;html=1;whiteSpace=wrap;connectable=0;fillColor=none;top=0;left=0;bottom=0;right=0;align=left;spacingLeft=6;overflow=hidden;strokeColor=inherit;fontSize=24;verticalAlign=top;" parent="eW1roao2XsK2nCmsk1pP-50" vertex="1">
          <mxGeometry x="80" width="210" height="30" as="geometry">
            <mxRectangle width="210" height="30" as="alternateBounds" />
          </mxGeometry>
        </mxCell>
        <mxCell id="eW1roao2XsK2nCmsk1pP-53" style="shape=partialRectangle;html=1;whiteSpace=wrap;connectable=0;fillColor=none;top=0;left=0;bottom=0;right=0;align=left;spacingLeft=6;overflow=hidden;strokeColor=inherit;fontSize=24;verticalAlign=top;" parent="eW1roao2XsK2nCmsk1pP-50" vertex="1">
          <mxGeometry x="290" width="310" height="30" as="geometry">
            <mxRectangle width="310" height="30" as="alternateBounds" />
          </mxGeometry>
        </mxCell>
        <mxCell id="eW1roao2XsK2nCmsk1pP-54" value="" style="shape=tableRow;horizontal=0;startSize=0;swimlaneHead=0;swimlaneBody=0;top=0;left=0;bottom=0;right=0;collapsible=0;dropTarget=0;fillColor=none;points=[[0,0.5],[1,0.5]];portConstraint=eastwest;strokeColor=inherit;fontSize=24;verticalAlign=top;" parent="eW1roao2XsK2nCmsk1pP-45" vertex="1">
          <mxGeometry y="170" width="600" height="70" as="geometry" />
        </mxCell>
        <mxCell id="eW1roao2XsK2nCmsk1pP-55" value="" style="shape=partialRectangle;html=1;whiteSpace=wrap;connectable=0;fillColor=none;top=0;left=0;bottom=0;right=0;overflow=hidden;strokeColor=inherit;fontSize=24;verticalAlign=top;" parent="eW1roao2XsK2nCmsk1pP-54" vertex="1">
          <mxGeometry width="80" height="70" as="geometry">
            <mxRectangle width="80" height="70" as="alternateBounds" />
          </mxGeometry>
        </mxCell>
        <mxCell id="eW1roao2XsK2nCmsk1pP-56" value="r = 0\1（提示风险）" style="shape=partialRectangle;html=1;whiteSpace=wrap;connectable=0;fillColor=none;top=0;left=0;bottom=0;right=0;align=left;spacingLeft=6;overflow=hidden;strokeColor=inherit;fontSize=24;verticalAlign=top;" parent="eW1roao2XsK2nCmsk1pP-54" vertex="1">
          <mxGeometry x="80" width="210" height="70" as="geometry">
            <mxRectangle width="210" height="70" as="alternateBounds" />
          </mxGeometry>
        </mxCell>
        <mxCell id="eW1roao2XsK2nCmsk1pP-57" value="PD = PD" style="shape=partialRectangle;html=1;whiteSpace=wrap;connectable=0;fillColor=none;top=0;left=0;bottom=0;right=0;align=left;spacingLeft=6;overflow=hidden;strokeColor=inherit;fontSize=24;verticalAlign=top;" parent="eW1roao2XsK2nCmsk1pP-54" vertex="1">
          <mxGeometry x="290" width="310" height="70" as="geometry">
            <mxRectangle width="310" height="70" as="alternateBounds" />
          </mxGeometry>
        </mxCell>
        <mxCell id="eW1roao2XsK2nCmsk1pP-58" value="" style="shape=tableRow;horizontal=0;startSize=0;swimlaneHead=0;swimlaneBody=0;top=0;left=0;bottom=0;right=0;collapsible=0;dropTarget=0;fillColor=none;points=[[0,0.5],[1,0.5]];portConstraint=eastwest;strokeColor=inherit;fontSize=24;verticalAlign=top;" parent="eW1roao2XsK2nCmsk1pP-45" vertex="1">
          <mxGeometry y="240" width="600" height="60" as="geometry" />
        </mxCell>
        <mxCell id="eW1roao2XsK2nCmsk1pP-59" value="" style="shape=partialRectangle;html=1;whiteSpace=wrap;connectable=0;fillColor=none;top=0;left=0;bottom=0;right=0;overflow=hidden;strokeColor=inherit;fontSize=24;verticalAlign=top;" parent="eW1roao2XsK2nCmsk1pP-58" vertex="1">
          <mxGeometry width="80" height="60" as="geometry">
            <mxRectangle width="80" height="60" as="alternateBounds" />
          </mxGeometry>
        </mxCell>
        <mxCell id="eW1roao2XsK2nCmsk1pP-60" value="r = 2（低风险）" style="shape=partialRectangle;html=1;whiteSpace=wrap;connectable=0;fillColor=none;top=0;left=0;bottom=0;right=0;align=left;spacingLeft=6;overflow=hidden;strokeColor=inherit;fontSize=24;verticalAlign=top;" parent="eW1roao2XsK2nCmsk1pP-58" vertex="1">
          <mxGeometry x="80" width="210" height="60" as="geometry">
            <mxRectangle width="210" height="60" as="alternateBounds" />
          </mxGeometry>
        </mxCell>
        <mxCell id="eW1roao2XsK2nCmsk1pP-61" value="PD = 0.025 + 0.5*PD&amp;nbsp; // if PD &amp;gt; 0.05 then PD&amp;nbsp;" style="shape=partialRectangle;html=1;whiteSpace=wrap;connectable=0;fillColor=none;top=0;left=0;bottom=0;right=0;align=left;spacingLeft=6;overflow=hidden;strokeColor=inherit;fontSize=24;verticalAlign=top;" parent="eW1roao2XsK2nCmsk1pP-58" vertex="1">
          <mxGeometry x="290" width="310" height="60" as="geometry">
            <mxRectangle width="310" height="60" as="alternateBounds" />
          </mxGeometry>
        </mxCell>
        <mxCell id="eW1roao2XsK2nCmsk1pP-62" value="" style="shape=tableRow;horizontal=0;startSize=0;swimlaneHead=0;swimlaneBody=0;top=0;left=0;bottom=0;right=0;collapsible=0;dropTarget=0;fillColor=none;points=[[0,0.5],[1,0.5]];portConstraint=eastwest;strokeColor=inherit;fontSize=24;verticalAlign=top;" parent="eW1roao2XsK2nCmsk1pP-45" vertex="1">
          <mxGeometry y="300" width="600" height="60" as="geometry" />
        </mxCell>
        <mxCell id="eW1roao2XsK2nCmsk1pP-63" value="" style="shape=partialRectangle;html=1;whiteSpace=wrap;connectable=0;fillColor=none;top=0;left=0;bottom=0;right=0;overflow=hidden;strokeColor=inherit;fontSize=24;verticalAlign=top;" parent="eW1roao2XsK2nCmsk1pP-62" vertex="1">
          <mxGeometry width="80" height="60" as="geometry">
            <mxRectangle width="80" height="60" as="alternateBounds" />
          </mxGeometry>
        </mxCell>
        <mxCell id="eW1roao2XsK2nCmsk1pP-64" value="r = 3（中风险）" style="shape=partialRectangle;html=1;whiteSpace=wrap;connectable=0;fillColor=none;top=0;left=0;bottom=0;right=0;align=left;spacingLeft=6;overflow=hidden;strokeColor=inherit;fontSize=24;verticalAlign=top;" parent="eW1roao2XsK2nCmsk1pP-62" vertex="1">
          <mxGeometry x="80" width="210" height="60" as="geometry">
            <mxRectangle width="210" height="60" as="alternateBounds" />
          </mxGeometry>
        </mxCell>
        <mxCell id="eW1roao2XsK2nCmsk1pP-65" value="PD = 0.05 + 0.5*PD&amp;nbsp; // if PD &amp;gt; 0.1 then PD&amp;nbsp;" style="shape=partialRectangle;html=1;whiteSpace=wrap;connectable=0;fillColor=none;top=0;left=0;bottom=0;right=0;align=left;spacingLeft=6;overflow=hidden;strokeColor=inherit;fontSize=24;verticalAlign=top;" parent="eW1roao2XsK2nCmsk1pP-62" vertex="1">
          <mxGeometry x="290" width="310" height="60" as="geometry">
            <mxRectangle width="310" height="60" as="alternateBounds" />
          </mxGeometry>
        </mxCell>
        <mxCell id="eW1roao2XsK2nCmsk1pP-74" value="" style="shape=tableRow;horizontal=0;startSize=0;swimlaneHead=0;swimlaneBody=0;top=0;left=0;bottom=0;right=0;collapsible=0;dropTarget=0;fillColor=none;points=[[0,0.5],[1,0.5]];portConstraint=eastwest;strokeColor=inherit;fontSize=24;verticalAlign=top;" parent="eW1roao2XsK2nCmsk1pP-45" vertex="1">
          <mxGeometry y="360" width="600" height="60" as="geometry" />
        </mxCell>
        <mxCell id="eW1roao2XsK2nCmsk1pP-75" value="" style="shape=partialRectangle;html=1;whiteSpace=wrap;connectable=0;fillColor=none;top=0;left=0;bottom=0;right=0;overflow=hidden;strokeColor=inherit;fontSize=24;verticalAlign=top;" parent="eW1roao2XsK2nCmsk1pP-74" vertex="1">
          <mxGeometry width="80" height="60" as="geometry">
            <mxRectangle width="80" height="60" as="alternateBounds" />
          </mxGeometry>
        </mxCell>
        <mxCell id="eW1roao2XsK2nCmsk1pP-76" value="r = 4（高风险）" style="shape=partialRectangle;html=1;whiteSpace=wrap;connectable=0;fillColor=none;top=0;left=0;bottom=0;right=0;align=left;spacingLeft=6;overflow=hidden;strokeColor=inherit;fontSize=24;verticalAlign=top;" parent="eW1roao2XsK2nCmsk1pP-74" vertex="1">
          <mxGeometry x="80" width="210" height="60" as="geometry">
            <mxRectangle width="210" height="60" as="alternateBounds" />
          </mxGeometry>
        </mxCell>
        <mxCell id="eW1roao2XsK2nCmsk1pP-77" value="PD = 0.1 + 0.5*PD&amp;nbsp; // if PD &amp;gt; 0.2 then PD&amp;nbsp;" style="shape=partialRectangle;html=1;whiteSpace=wrap;connectable=0;fillColor=none;top=0;left=0;bottom=0;right=0;align=left;spacingLeft=6;overflow=hidden;strokeColor=inherit;fontSize=24;verticalAlign=top;" parent="eW1roao2XsK2nCmsk1pP-74" vertex="1">
          <mxGeometry x="290" width="310" height="60" as="geometry">
            <mxRectangle width="310" height="60" as="alternateBounds" />
          </mxGeometry>
        </mxCell>
        <mxCell id="eW1roao2XsK2nCmsk1pP-78" value="" style="shape=tableRow;horizontal=0;startSize=0;swimlaneHead=0;swimlaneBody=0;top=0;left=0;bottom=0;right=0;collapsible=0;dropTarget=0;fillColor=none;points=[[0,0.5],[1,0.5]];portConstraint=eastwest;strokeColor=inherit;fontSize=24;verticalAlign=top;" parent="eW1roao2XsK2nCmsk1pP-45" vertex="1">
          <mxGeometry y="420" width="600" height="40" as="geometry" />
        </mxCell>
        <mxCell id="eW1roao2XsK2nCmsk1pP-79" value="" style="shape=partialRectangle;html=1;whiteSpace=wrap;connectable=0;fillColor=none;top=0;left=0;bottom=0;right=0;overflow=hidden;strokeColor=inherit;fontSize=24;verticalAlign=top;" parent="eW1roao2XsK2nCmsk1pP-78" vertex="1">
          <mxGeometry width="80" height="40" as="geometry">
            <mxRectangle width="80" height="40" as="alternateBounds" />
          </mxGeometry>
        </mxCell>
        <mxCell id="eW1roao2XsK2nCmsk1pP-80" value="r = 5（极高风险）" style="shape=partialRectangle;html=1;whiteSpace=wrap;connectable=0;fillColor=none;top=0;left=0;bottom=0;right=0;align=left;spacingLeft=6;overflow=hidden;strokeColor=inherit;fontSize=24;verticalAlign=top;" parent="eW1roao2XsK2nCmsk1pP-78" vertex="1">
          <mxGeometry x="80" width="210" height="40" as="geometry">
            <mxRectangle width="210" height="40" as="alternateBounds" />
          </mxGeometry>
        </mxCell>
        <mxCell id="eW1roao2XsK2nCmsk1pP-81" value="PD = 0.999" style="shape=partialRectangle;html=1;whiteSpace=wrap;connectable=0;fillColor=none;top=0;left=0;bottom=0;right=0;align=left;spacingLeft=6;overflow=hidden;strokeColor=inherit;fontSize=24;verticalAlign=top;" parent="eW1roao2XsK2nCmsk1pP-78" vertex="1">
          <mxGeometry x="290" width="310" height="40" as="geometry">
            <mxRectangle width="310" height="40" as="alternateBounds" />
          </mxGeometry>
        </mxCell>
        <mxCell id="eW1roao2XsK2nCmsk1pP-66" value="" style="shape=tableRow;horizontal=0;startSize=0;swimlaneHead=0;swimlaneBody=0;top=0;left=0;bottom=0;right=0;collapsible=0;dropTarget=0;fillColor=none;points=[[0,0.5],[1,0.5]];portConstraint=eastwest;strokeColor=inherit;fontSize=24;verticalAlign=top;" parent="eW1roao2XsK2nCmsk1pP-45" vertex="1">
          <mxGeometry y="460" width="600" height="40" as="geometry" />
        </mxCell>
        <mxCell id="eW1roao2XsK2nCmsk1pP-67" value="step3" style="shape=partialRectangle;html=1;whiteSpace=wrap;connectable=0;fillColor=none;top=0;left=0;bottom=0;right=0;overflow=hidden;strokeColor=inherit;fontSize=24;verticalAlign=top;" parent="eW1roao2XsK2nCmsk1pP-66" vertex="1">
          <mxGeometry width="80" height="40" as="geometry">
            <mxRectangle width="80" height="40" as="alternateBounds" />
          </mxGeometry>
        </mxCell>
        <mxCell id="eW1roao2XsK2nCmsk1pP-68" value="PD转化子分" style="shape=partialRectangle;html=1;whiteSpace=wrap;connectable=0;fillColor=none;top=0;left=0;bottom=0;right=0;align=left;spacingLeft=6;overflow=hidden;strokeColor=inherit;fontSize=24;verticalAlign=top;" parent="eW1roao2XsK2nCmsk1pP-66" vertex="1">
          <mxGeometry x="80" width="210" height="40" as="geometry">
            <mxRectangle width="210" height="40" as="alternateBounds" />
          </mxGeometry>
        </mxCell>
        <mxCell id="eW1roao2XsK2nCmsk1pP-69" value="S = (a-b*ln(PD/(1-PD)))" style="shape=partialRectangle;html=1;whiteSpace=wrap;connectable=0;fillColor=none;top=0;left=0;bottom=0;right=0;align=left;spacingLeft=6;overflow=hidden;strokeColor=inherit;fontSize=24;verticalAlign=top;" parent="eW1roao2XsK2nCmsk1pP-66" vertex="1">
          <mxGeometry x="290" width="310" height="40" as="geometry">
            <mxRectangle width="310" height="40" as="alternateBounds" />
          </mxGeometry>
        </mxCell>
        <mxCell id="eW1roao2XsK2nCmsk1pP-115" value="四 其他信息拼接" style="shape=table;startSize=80;container=1;collapsible=0;childLayout=tableLayout;fixedRows=1;rowLines=0;fontStyle=0;strokeColor=default;fontSize=24;verticalAlign=top;" parent="WIyWlLk6GJQsqaUBKTNV-1" vertex="1">
          <mxGeometry x="1730" y="-530" width="290" height="230" as="geometry" />
        </mxCell>
        <mxCell id="eW1roao2XsK2nCmsk1pP-116" value="" style="shape=tableRow;horizontal=0;startSize=0;swimlaneHead=0;swimlaneBody=0;top=0;left=0;bottom=0;right=0;collapsible=0;dropTarget=0;fillColor=none;points=[[0,0.5],[1,0.5]];portConstraint=eastwest;strokeColor=inherit;fontSize=24;verticalAlign=top;" parent="eW1roao2XsK2nCmsk1pP-115" vertex="1">
          <mxGeometry y="80" width="290" height="50" as="geometry" />
        </mxCell>
        <mxCell id="eW1roao2XsK2nCmsk1pP-117" value="1" style="shape=partialRectangle;html=1;whiteSpace=wrap;connectable=0;fillColor=none;top=0;left=0;bottom=0;right=0;overflow=hidden;pointerEvents=1;strokeColor=inherit;fontSize=24;verticalAlign=top;" parent="eW1roao2XsK2nCmsk1pP-116" vertex="1">
          <mxGeometry width="80" height="50" as="geometry">
            <mxRectangle width="80" height="50" as="alternateBounds" />
          </mxGeometry>
        </mxCell>
        <mxCell id="eW1roao2XsK2nCmsk1pP-118" value="子分计算时间" style="shape=partialRectangle;html=1;whiteSpace=wrap;connectable=0;fillColor=none;top=0;left=0;bottom=0;right=0;align=left;spacingLeft=6;overflow=hidden;strokeColor=inherit;fontSize=24;verticalAlign=top;" parent="eW1roao2XsK2nCmsk1pP-116" vertex="1">
          <mxGeometry x="80" width="210" height="50" as="geometry">
            <mxRectangle width="210" height="50" as="alternateBounds" />
          </mxGeometry>
        </mxCell>
        <mxCell id="eW1roao2XsK2nCmsk1pP-119" value="" style="shape=tableRow;horizontal=0;startSize=0;swimlaneHead=0;swimlaneBody=0;top=0;left=0;bottom=0;right=0;collapsible=0;dropTarget=0;fillColor=none;points=[[0,0.5],[1,0.5]];portConstraint=eastwest;strokeColor=inherit;fontSize=24;verticalAlign=top;" parent="eW1roao2XsK2nCmsk1pP-115" vertex="1">
          <mxGeometry y="130" width="290" height="50" as="geometry" />
        </mxCell>
        <mxCell id="eW1roao2XsK2nCmsk1pP-120" value="2" style="shape=partialRectangle;html=1;whiteSpace=wrap;connectable=0;fillColor=none;top=0;left=0;bottom=0;right=0;overflow=hidden;strokeColor=inherit;fontSize=24;verticalAlign=top;" parent="eW1roao2XsK2nCmsk1pP-119" vertex="1">
          <mxGeometry width="80" height="50" as="geometry">
            <mxRectangle width="80" height="50" as="alternateBounds" />
          </mxGeometry>
        </mxCell>
        <mxCell id="eW1roao2XsK2nCmsk1pP-121" value="子分RANK分位数" style="shape=partialRectangle;html=1;whiteSpace=wrap;connectable=0;fillColor=none;top=0;left=0;bottom=0;right=0;align=left;spacingLeft=6;overflow=hidden;strokeColor=inherit;fontSize=24;verticalAlign=top;" parent="eW1roao2XsK2nCmsk1pP-119" vertex="1">
          <mxGeometry x="80" width="210" height="50" as="geometry">
            <mxRectangle width="210" height="50" as="alternateBounds" />
          </mxGeometry>
        </mxCell>
        <mxCell id="eW1roao2XsK2nCmsk1pP-122" value="" style="shape=tableRow;horizontal=0;startSize=0;swimlaneHead=0;swimlaneBody=0;top=0;left=0;bottom=0;right=0;collapsible=0;dropTarget=0;fillColor=none;points=[[0,0.5],[1,0.5]];portConstraint=eastwest;strokeColor=inherit;fontSize=24;verticalAlign=top;" parent="eW1roao2XsK2nCmsk1pP-115" vertex="1">
          <mxGeometry y="180" width="290" height="50" as="geometry" />
        </mxCell>
        <mxCell id="eW1roao2XsK2nCmsk1pP-123" value="3" style="shape=partialRectangle;html=1;whiteSpace=wrap;connectable=0;fillColor=none;top=0;left=0;bottom=0;right=0;overflow=hidden;strokeColor=inherit;fontSize=24;verticalAlign=top;" parent="eW1roao2XsK2nCmsk1pP-122" vertex="1">
          <mxGeometry width="80" height="50" as="geometry">
            <mxRectangle width="80" height="50" as="alternateBounds" />
          </mxGeometry>
        </mxCell>
        <mxCell id="eW1roao2XsK2nCmsk1pP-124" value="其他标签信息" style="shape=partialRectangle;html=1;whiteSpace=wrap;connectable=0;fillColor=none;top=0;left=0;bottom=0;right=0;align=left;spacingLeft=6;overflow=hidden;strokeColor=inherit;fontSize=24;verticalAlign=top;" parent="eW1roao2XsK2nCmsk1pP-122" vertex="1">
          <mxGeometry x="80" width="210" height="50" as="geometry">
            <mxRectangle width="210" height="50" as="alternateBounds" />
          </mxGeometry>
        </mxCell>
        <mxCell id="eW1roao2XsK2nCmsk1pP-125" value="&lt;font style=&quot;font-size: 26px;&quot;&gt;生成产品表&lt;/font&gt;" style="rhombus;whiteSpace=wrap;html=1;fontSize=20;" parent="WIyWlLk6GJQsqaUBKTNV-1" vertex="1">
          <mxGeometry x="740" y="-820" width="200" height="130" as="geometry" />
        </mxCell>
        <mxCell id="eW1roao2XsK2nCmsk1pP-211" value="&lt;font style=&quot;font-size: 26px;&quot;&gt;生成最终结果，形成产品表&lt;/font&gt;" style="shape=document;whiteSpace=wrap;html=1;boundedLbl=1;" parent="WIyWlLk6GJQsqaUBKTNV-1" vertex="1">
          <mxGeometry x="-210" y="-530" width="120" height="160" as="geometry" />
        </mxCell>
        <mxCell id="eW1roao2XsK2nCmsk1pP-212" value="&lt;font style=&quot;font-size: 26px;&quot;&gt;子模型整合汇总&lt;/font&gt;" style="shape=document;whiteSpace=wrap;html=1;boundedLbl=1;" parent="WIyWlLk6GJQsqaUBKTNV-1" vertex="1">
          <mxGeometry x="-210" y="320" width="120" height="100" as="geometry" />
        </mxCell>
        <mxCell id="q32x7xYCcye1hgE4NlCJ-12" style="edgeStyle=orthogonalEdgeStyle;rounded=0;orthogonalLoop=1;jettySize=auto;html=1;exitX=0.5;exitY=0;exitDx=0;exitDy=0;shape=flexArrow;" parent="WIyWlLk6GJQsqaUBKTNV-1" source="eW1roao2XsK2nCmsk1pP-213" target="eW1roao2XsK2nCmsk1pP-212" edge="1">
          <mxGeometry relative="1" as="geometry" />
        </mxCell>
        <mxCell id="eW1roao2XsK2nCmsk1pP-213" value="&lt;font style=&quot;font-size: 26px;&quot;&gt;计算子模型结果&lt;/font&gt;" style="shape=document;whiteSpace=wrap;html=1;boundedLbl=1;" parent="WIyWlLk6GJQsqaUBKTNV-1" vertex="1">
          <mxGeometry x="-210" y="1430" width="120" height="100" as="geometry" />
        </mxCell>
        <mxCell id="eW1roao2XsK2nCmsk1pP-214" value="&lt;font style=&quot;font-size: 26px;&quot;&gt;获取数据&lt;br&gt;加工特征&lt;/font&gt;" style="shape=document;whiteSpace=wrap;html=1;boundedLbl=1;" parent="WIyWlLk6GJQsqaUBKTNV-1" vertex="1">
          <mxGeometry x="-210" y="1630" width="120" height="100" as="geometry" />
        </mxCell>
        <mxCell id="eW1roao2XsK2nCmsk1pP-215" value="&lt;font style=&quot;font-size: 26px;&quot;&gt;供给整合表&lt;/font&gt;" style="rhombus;whiteSpace=wrap;html=1;" parent="WIyWlLk6GJQsqaUBKTNV-1" vertex="1">
          <mxGeometry x="730" y="1270" width="200" height="130" as="geometry" />
        </mxCell>
        <mxCell id="BWipgjC80R4UF_NCCVxM-69" value="一 提取主表" style="shape=table;startSize=50;container=1;collapsible=0;childLayout=tableLayout;fixedRows=1;rowLines=0;fontStyle=0;strokeColor=default;fontSize=24;verticalAlign=top;" parent="WIyWlLk6GJQsqaUBKTNV-1" vertex="1">
          <mxGeometry y="320" width="290" height="240" as="geometry" />
        </mxCell>
        <mxCell id="BWipgjC80R4UF_NCCVxM-70" value="" style="shape=tableRow;horizontal=0;startSize=0;swimlaneHead=0;swimlaneBody=0;top=0;left=0;bottom=0;right=0;collapsible=0;dropTarget=0;fillColor=none;points=[[0,0.5],[1,0.5]];portConstraint=eastwest;strokeColor=inherit;fontSize=24;verticalAlign=top;" parent="BWipgjC80R4UF_NCCVxM-69" vertex="1">
          <mxGeometry y="50" width="290" height="110" as="geometry" />
        </mxCell>
        <mxCell id="BWipgjC80R4UF_NCCVxM-71" value="表名" style="shape=partialRectangle;html=1;whiteSpace=wrap;connectable=0;fillColor=none;top=0;left=0;bottom=0;right=0;overflow=hidden;pointerEvents=1;strokeColor=inherit;fontSize=24;verticalAlign=top;" parent="BWipgjC80R4UF_NCCVxM-70" vertex="1">
          <mxGeometry width="80" height="110" as="geometry">
            <mxRectangle width="80" height="110" as="alternateBounds" />
          </mxGeometry>
        </mxCell>
        <mxCell id="BWipgjC80R4UF_NCCVxM-72" value="dfxb_business&lt;div&gt;&lt;span style=&quot;background-color: initial;&quot;&gt;_db.&lt;/span&gt;&lt;span style=&quot;background-color: initial;&quot;&gt;idb_&lt;/span&gt;&lt;span style=&quot;background-color: initial;&quot;&gt;common-summary&lt;/span&gt;&lt;/div&gt;" style="shape=partialRectangle;html=1;whiteSpace=wrap;connectable=0;fillColor=none;top=0;left=0;bottom=0;right=0;align=left;spacingLeft=6;overflow=hidden;strokeColor=inherit;fontSize=24;verticalAlign=top;" parent="BWipgjC80R4UF_NCCVxM-70" vertex="1">
          <mxGeometry x="80" width="210" height="110" as="geometry">
            <mxRectangle width="210" height="110" as="alternateBounds" />
          </mxGeometry>
        </mxCell>
        <mxCell id="BWipgjC80R4UF_NCCVxM-73" value="" style="shape=tableRow;horizontal=0;startSize=0;swimlaneHead=0;swimlaneBody=0;top=0;left=0;bottom=0;right=0;collapsible=0;dropTarget=0;fillColor=none;points=[[0,0.5],[1,0.5]];portConstraint=eastwest;strokeColor=inherit;fontSize=24;verticalAlign=top;" parent="BWipgjC80R4UF_NCCVxM-69" vertex="1">
          <mxGeometry y="160" width="290" height="80" as="geometry" />
        </mxCell>
        <mxCell id="BWipgjC80R4UF_NCCVxM-74" value="分区筛选" style="shape=partialRectangle;html=1;whiteSpace=wrap;connectable=0;fillColor=none;top=0;left=0;bottom=0;right=0;overflow=hidden;strokeColor=inherit;fontSize=24;verticalAlign=top;" parent="BWipgjC80R4UF_NCCVxM-73" vertex="1">
          <mxGeometry width="80" height="80" as="geometry">
            <mxRectangle width="80" height="80" as="alternateBounds" />
          </mxGeometry>
        </mxCell>
        <mxCell id="BWipgjC80R4UF_NCCVxM-75" value="月末分区" style="shape=partialRectangle;html=1;whiteSpace=wrap;connectable=0;fillColor=none;top=0;left=0;bottom=0;right=0;align=left;spacingLeft=6;overflow=hidden;strokeColor=inherit;fontSize=24;verticalAlign=top;" parent="BWipgjC80R4UF_NCCVxM-73" vertex="1">
          <mxGeometry x="80" width="210" height="80" as="geometry">
            <mxRectangle width="210" height="80" as="alternateBounds" />
          </mxGeometry>
        </mxCell>
        <mxCell id="BWipgjC80R4UF_NCCVxM-85" value="二 提取内评结果" style="shape=table;startSize=50;container=1;collapsible=0;childLayout=tableLayout;fixedRows=1;rowLines=0;fontStyle=0;strokeColor=default;fontSize=24;verticalAlign=top;" parent="WIyWlLk6GJQsqaUBKTNV-1" vertex="1">
          <mxGeometry x="360" y="320" width="320" height="260" as="geometry" />
        </mxCell>
        <mxCell id="BWipgjC80R4UF_NCCVxM-86" value="" style="shape=tableRow;horizontal=0;startSize=0;swimlaneHead=0;swimlaneBody=0;top=0;left=0;bottom=0;right=0;collapsible=0;dropTarget=0;fillColor=none;points=[[0,0.5],[1,0.5]];portConstraint=eastwest;strokeColor=inherit;fontSize=24;verticalAlign=top;" parent="BWipgjC80R4UF_NCCVxM-85" vertex="1">
          <mxGeometry y="50" width="320" height="120" as="geometry" />
        </mxCell>
        <mxCell id="BWipgjC80R4UF_NCCVxM-87" value="表名" style="shape=partialRectangle;html=1;whiteSpace=wrap;connectable=0;fillColor=none;top=0;left=0;bottom=0;right=0;overflow=hidden;pointerEvents=1;strokeColor=inherit;fontSize=24;verticalAlign=top;" parent="BWipgjC80R4UF_NCCVxM-86" vertex="1">
          <mxGeometry width="80" height="120" as="geometry">
            <mxRectangle width="80" height="120" as="alternateBounds" />
          </mxGeometry>
        </mxCell>
        <mxCell id="BWipgjC80R4UF_NCCVxM-88" value="bdap_db.rdm_mp_&lt;br&gt;corp_cust_effect_&lt;br&gt;gradeflow" style="shape=partialRectangle;html=1;whiteSpace=wrap;connectable=0;fillColor=none;top=0;left=0;bottom=0;right=0;align=left;spacingLeft=6;overflow=hidden;strokeColor=inherit;fontSize=24;verticalAlign=top;" parent="BWipgjC80R4UF_NCCVxM-86" vertex="1">
          <mxGeometry x="80" width="240" height="120" as="geometry">
            <mxRectangle width="240" height="120" as="alternateBounds" />
          </mxGeometry>
        </mxCell>
        <mxCell id="BWipgjC80R4UF_NCCVxM-92" value="" style="shape=tableRow;horizontal=0;startSize=0;swimlaneHead=0;swimlaneBody=0;top=0;left=0;bottom=0;right=0;collapsible=0;dropTarget=0;fillColor=none;points=[[0,0.5],[1,0.5]];portConstraint=eastwest;strokeColor=inherit;fontSize=24;verticalAlign=top;" parent="BWipgjC80R4UF_NCCVxM-85" vertex="1">
          <mxGeometry y="170" width="320" height="90" as="geometry" />
        </mxCell>
        <mxCell id="BWipgjC80R4UF_NCCVxM-93" value="分区筛选" style="shape=partialRectangle;html=1;whiteSpace=wrap;connectable=0;fillColor=none;top=0;left=0;bottom=0;right=0;overflow=hidden;strokeColor=inherit;fontSize=24;verticalAlign=top;" parent="BWipgjC80R4UF_NCCVxM-92" vertex="1">
          <mxGeometry width="80" height="90" as="geometry">
            <mxRectangle width="80" height="90" as="alternateBounds" />
          </mxGeometry>
        </mxCell>
        <mxCell id="BWipgjC80R4UF_NCCVxM-94" value="所有月末分区，36个月之内取最新结果。" style="shape=partialRectangle;html=1;whiteSpace=wrap;connectable=0;fillColor=none;top=0;left=0;bottom=0;right=0;align=left;spacingLeft=6;overflow=hidden;strokeColor=inherit;fontSize=24;verticalAlign=top;" parent="BWipgjC80R4UF_NCCVxM-92" vertex="1">
          <mxGeometry x="80" width="240" height="90" as="geometry">
            <mxRectangle width="240" height="90" as="alternateBounds" />
          </mxGeometry>
        </mxCell>
        <mxCell id="BWipgjC80R4UF_NCCVxM-98" value="三 提取其他子分结果" style="shape=table;startSize=50;container=1;collapsible=0;childLayout=tableLayout;fixedRows=1;rowLines=0;fontStyle=0;strokeColor=default;fontSize=24;verticalAlign=top;" parent="WIyWlLk6GJQsqaUBKTNV-1" vertex="1">
          <mxGeometry x="760" y="320" width="620.0000000000005" height="910.0000000000009" as="geometry" />
        </mxCell>
        <mxCell id="BWipgjC80R4UF_NCCVxM-99" value="" style="shape=tableRow;horizontal=0;startSize=0;swimlaneHead=0;swimlaneBody=0;top=0;left=0;bottom=0;right=0;collapsible=0;dropTarget=0;fillColor=none;points=[[0,0.5],[1,0.5]];portConstraint=eastwest;strokeColor=inherit;fontSize=24;verticalAlign=top;" parent="BWipgjC80R4UF_NCCVxM-98" vertex="1">
          <mxGeometry y="50" width="620.0000000000005" height="70" as="geometry" />
        </mxCell>
        <mxCell id="BWipgjC80R4UF_NCCVxM-100" value="企业征信" style="shape=partialRectangle;html=1;whiteSpace=wrap;connectable=0;fillColor=none;top=0;left=0;bottom=0;right=0;overflow=hidden;pointerEvents=1;strokeColor=inherit;fontSize=24;verticalAlign=top;" parent="BWipgjC80R4UF_NCCVxM-99" vertex="1">
          <mxGeometry width="110" height="70" as="geometry">
            <mxRectangle width="110" height="70" as="alternateBounds" />
          </mxGeometry>
        </mxCell>
        <mxCell id="BWipgjC80R4UF_NCCVxM-101" value="表名" style="shape=partialRectangle;html=1;whiteSpace=wrap;connectable=0;fillColor=none;top=0;left=0;bottom=0;right=0;align=left;spacingLeft=6;overflow=hidden;strokeColor=inherit;fontSize=24;verticalAlign=top;" parent="BWipgjC80R4UF_NCCVxM-99" vertex="1">
          <mxGeometry x="110" width="110" height="70" as="geometry">
            <mxRectangle width="110" height="70" as="alternateBounds" />
          </mxGeometry>
        </mxCell>
        <mxCell id="BWipgjC80R4UF_NCCVxM-108" value="dfxb_pro_db.dfxb_mrmp_ma_b_&lt;br&gt;s_qyz_m【日增量】" style="shape=partialRectangle;html=1;whiteSpace=wrap;connectable=0;fillColor=none;top=0;left=0;bottom=0;right=0;align=left;spacingLeft=6;overflow=hidden;strokeColor=inherit;fontSize=24;verticalAlign=top;" parent="BWipgjC80R4UF_NCCVxM-99" vertex="1">
          <mxGeometry x="220" width="400" height="70" as="geometry">
            <mxRectangle width="400" height="70" as="alternateBounds" />
          </mxGeometry>
        </mxCell>
        <mxCell id="BWipgjC80R4UF_NCCVxM-102" value="" style="shape=tableRow;horizontal=0;startSize=0;swimlaneHead=0;swimlaneBody=0;top=0;left=0;bottom=0;right=0;collapsible=0;dropTarget=0;fillColor=none;points=[[0,0.5],[1,0.5]];portConstraint=eastwest;strokeColor=inherit;fontSize=24;verticalAlign=top;" parent="BWipgjC80R4UF_NCCVxM-98" vertex="1">
          <mxGeometry y="120" width="620.0000000000005" height="60" as="geometry" />
        </mxCell>
        <mxCell id="BWipgjC80R4UF_NCCVxM-103" value="" style="shape=partialRectangle;html=1;whiteSpace=wrap;connectable=0;fillColor=none;top=0;left=0;bottom=0;right=0;overflow=hidden;strokeColor=inherit;fontSize=24;verticalAlign=top;" parent="BWipgjC80R4UF_NCCVxM-102" vertex="1">
          <mxGeometry width="110" height="60" as="geometry">
            <mxRectangle width="110" height="60" as="alternateBounds" />
          </mxGeometry>
        </mxCell>
        <mxCell id="BWipgjC80R4UF_NCCVxM-104" value="分区筛选" style="shape=partialRectangle;html=1;whiteSpace=wrap;connectable=0;fillColor=none;top=0;left=0;bottom=0;right=0;align=left;spacingLeft=6;overflow=hidden;strokeColor=inherit;fontSize=24;verticalAlign=top;" parent="BWipgjC80R4UF_NCCVxM-102" vertex="1">
          <mxGeometry x="110" width="110" height="60" as="geometry">
            <mxRectangle width="110" height="60" as="alternateBounds" />
          </mxGeometry>
        </mxCell>
        <mxCell id="BWipgjC80R4UF_NCCVxM-109" value="24个月之内，取最新结果" style="shape=partialRectangle;html=1;whiteSpace=wrap;connectable=0;fillColor=none;top=0;left=0;bottom=0;right=0;align=left;spacingLeft=6;overflow=hidden;strokeColor=inherit;fontSize=24;verticalAlign=top;" parent="BWipgjC80R4UF_NCCVxM-102" vertex="1">
          <mxGeometry x="220" width="400" height="60" as="geometry">
            <mxRectangle width="400" height="60" as="alternateBounds" />
          </mxGeometry>
        </mxCell>
        <mxCell id="BWipgjC80R4UF_NCCVxM-118" value="" style="shape=tableRow;horizontal=0;startSize=0;swimlaneHead=0;swimlaneBody=0;top=0;left=0;bottom=0;right=0;collapsible=0;dropTarget=0;fillColor=none;points=[[0,0.5],[1,0.5]];portConstraint=eastwest;strokeColor=inherit;fontSize=24;verticalAlign=top;" parent="BWipgjC80R4UF_NCCVxM-98" vertex="1">
          <mxGeometry y="180" width="620.0000000000005" height="100" as="geometry" />
        </mxCell>
        <mxCell id="BWipgjC80R4UF_NCCVxM-119" value="企业工商" style="shape=partialRectangle;html=1;whiteSpace=wrap;connectable=0;fillColor=none;top=0;left=0;bottom=0;right=0;overflow=hidden;strokeColor=inherit;fontSize=24;verticalAlign=top;" parent="BWipgjC80R4UF_NCCVxM-118" vertex="1">
          <mxGeometry width="110" height="100" as="geometry">
            <mxRectangle width="110" height="100" as="alternateBounds" />
          </mxGeometry>
        </mxCell>
        <mxCell id="BWipgjC80R4UF_NCCVxM-120" value="表名" style="shape=partialRectangle;html=1;whiteSpace=wrap;connectable=0;fillColor=none;top=0;left=0;bottom=0;right=0;align=left;spacingLeft=6;overflow=hidden;strokeColor=inherit;fontSize=24;verticalAlign=top;" parent="BWipgjC80R4UF_NCCVxM-118" vertex="1">
          <mxGeometry x="110" width="110" height="100" as="geometry">
            <mxRectangle width="110" height="100" as="alternateBounds" />
          </mxGeometry>
        </mxCell>
        <mxCell id="BWipgjC80R4UF_NCCVxM-121" value="dfxb_pro_db.dfxb_mrmp_ma_&lt;br&gt;s_gsy_model&lt;span style=&quot;background-color: initial;&quot;&gt;_wb_summary_d&amp;nbsp;&lt;br&gt;&lt;/span&gt;&lt;span style=&quot;background-color: initial;&quot;&gt;【日全量】&lt;/span&gt;" style="shape=partialRectangle;html=1;whiteSpace=wrap;connectable=0;fillColor=none;top=0;left=0;bottom=0;right=0;align=left;spacingLeft=6;overflow=hidden;strokeColor=inherit;fontSize=24;verticalAlign=top;" parent="BWipgjC80R4UF_NCCVxM-118" vertex="1">
          <mxGeometry x="220" width="400" height="100" as="geometry">
            <mxRectangle width="400" height="100" as="alternateBounds" />
          </mxGeometry>
        </mxCell>
        <mxCell id="BWipgjC80R4UF_NCCVxM-126" value="" style="shape=tableRow;horizontal=0;startSize=0;swimlaneHead=0;swimlaneBody=0;top=0;left=0;bottom=0;right=0;collapsible=0;dropTarget=0;fillColor=none;points=[[0,0.5],[1,0.5]];portConstraint=eastwest;strokeColor=inherit;fontSize=24;verticalAlign=top;" parent="BWipgjC80R4UF_NCCVxM-98" vertex="1">
          <mxGeometry y="280" width="620.0000000000005" height="60" as="geometry" />
        </mxCell>
        <mxCell id="BWipgjC80R4UF_NCCVxM-127" value="" style="shape=partialRectangle;html=1;whiteSpace=wrap;connectable=0;fillColor=none;top=0;left=0;bottom=0;right=0;overflow=hidden;strokeColor=inherit;fontSize=24;verticalAlign=top;" parent="BWipgjC80R4UF_NCCVxM-126" vertex="1">
          <mxGeometry width="110" height="60" as="geometry">
            <mxRectangle width="110" height="60" as="alternateBounds" />
          </mxGeometry>
        </mxCell>
        <mxCell id="BWipgjC80R4UF_NCCVxM-128" value="分区筛选" style="shape=partialRectangle;html=1;whiteSpace=wrap;connectable=0;fillColor=none;top=0;left=0;bottom=0;right=0;align=left;spacingLeft=6;overflow=hidden;strokeColor=inherit;fontSize=24;verticalAlign=top;" parent="BWipgjC80R4UF_NCCVxM-126" vertex="1">
          <mxGeometry x="110" width="110" height="60" as="geometry">
            <mxRectangle width="110" height="60" as="alternateBounds" />
          </mxGeometry>
        </mxCell>
        <mxCell id="BWipgjC80R4UF_NCCVxM-129" value="最新月末分区。" style="shape=partialRectangle;html=1;whiteSpace=wrap;connectable=0;fillColor=none;top=0;left=0;bottom=0;right=0;align=left;spacingLeft=6;overflow=hidden;strokeColor=inherit;fontSize=24;verticalAlign=top;" parent="BWipgjC80R4UF_NCCVxM-126" vertex="1">
          <mxGeometry x="220" width="400" height="60" as="geometry">
            <mxRectangle width="400" height="60" as="alternateBounds" />
          </mxGeometry>
        </mxCell>
        <mxCell id="BWipgjC80R4UF_NCCVxM-130" value="" style="shape=tableRow;horizontal=0;startSize=0;swimlaneHead=0;swimlaneBody=0;top=0;left=0;bottom=0;right=0;collapsible=0;dropTarget=0;fillColor=none;points=[[0,0.5],[1,0.5]];portConstraint=eastwest;strokeColor=inherit;fontSize=24;verticalAlign=top;" parent="BWipgjC80R4UF_NCCVxM-98" vertex="1">
          <mxGeometry y="340" width="620.0000000000005" height="80" as="geometry" />
        </mxCell>
        <mxCell id="BWipgjC80R4UF_NCCVxM-131" value="企业税务" style="shape=partialRectangle;html=1;whiteSpace=wrap;connectable=0;fillColor=none;top=0;left=0;bottom=0;right=0;overflow=hidden;strokeColor=inherit;fontSize=24;verticalAlign=top;" parent="BWipgjC80R4UF_NCCVxM-130" vertex="1">
          <mxGeometry width="110" height="80" as="geometry">
            <mxRectangle width="110" height="80" as="alternateBounds" />
          </mxGeometry>
        </mxCell>
        <mxCell id="BWipgjC80R4UF_NCCVxM-132" value="表名" style="shape=partialRectangle;html=1;whiteSpace=wrap;connectable=0;fillColor=none;top=0;left=0;bottom=0;right=0;align=left;spacingLeft=6;overflow=hidden;strokeColor=inherit;fontSize=24;verticalAlign=top;" parent="BWipgjC80R4UF_NCCVxM-130" vertex="1">
          <mxGeometry x="110" width="110" height="80" as="geometry">
            <mxRectangle width="110" height="80" as="alternateBounds" />
          </mxGeometry>
        </mxCell>
        <mxCell id="BWipgjC80R4UF_NCCVxM-133" value="dfxb_business_db.airm_&lt;br&gt;b_sww_model【日增量】" style="shape=partialRectangle;html=1;whiteSpace=wrap;connectable=0;fillColor=none;top=0;left=0;bottom=0;right=0;align=left;spacingLeft=6;overflow=hidden;strokeColor=inherit;fontSize=24;verticalAlign=top;" parent="BWipgjC80R4UF_NCCVxM-130" vertex="1">
          <mxGeometry x="220" width="400" height="80" as="geometry">
            <mxRectangle width="400" height="80" as="alternateBounds" />
          </mxGeometry>
        </mxCell>
        <mxCell id="BWipgjC80R4UF_NCCVxM-138" value="" style="shape=tableRow;horizontal=0;startSize=0;swimlaneHead=0;swimlaneBody=0;top=0;left=0;bottom=0;right=0;collapsible=0;dropTarget=0;fillColor=none;points=[[0,0.5],[1,0.5]];portConstraint=eastwest;strokeColor=inherit;fontSize=24;verticalAlign=top;" parent="BWipgjC80R4UF_NCCVxM-98" vertex="1">
          <mxGeometry y="420" width="620.0000000000005" height="60" as="geometry" />
        </mxCell>
        <mxCell id="BWipgjC80R4UF_NCCVxM-139" value="" style="shape=partialRectangle;html=1;whiteSpace=wrap;connectable=0;fillColor=none;top=0;left=0;bottom=0;right=0;overflow=hidden;strokeColor=inherit;fontSize=24;verticalAlign=top;" parent="BWipgjC80R4UF_NCCVxM-138" vertex="1">
          <mxGeometry width="110" height="60" as="geometry">
            <mxRectangle width="110" height="60" as="alternateBounds" />
          </mxGeometry>
        </mxCell>
        <mxCell id="BWipgjC80R4UF_NCCVxM-140" value="分区筛选" style="shape=partialRectangle;html=1;whiteSpace=wrap;connectable=0;fillColor=none;top=0;left=0;bottom=0;right=0;align=left;spacingLeft=6;overflow=hidden;strokeColor=inherit;fontSize=24;verticalAlign=top;" parent="BWipgjC80R4UF_NCCVxM-138" vertex="1">
          <mxGeometry x="110" width="110" height="60" as="geometry">
            <mxRectangle width="110" height="60" as="alternateBounds" />
          </mxGeometry>
        </mxCell>
        <mxCell id="BWipgjC80R4UF_NCCVxM-141" value="24个月之内，取最新结果。" style="shape=partialRectangle;html=1;whiteSpace=wrap;connectable=0;fillColor=none;top=0;left=0;bottom=0;right=0;align=left;spacingLeft=6;overflow=hidden;strokeColor=inherit;fontSize=24;verticalAlign=top;" parent="BWipgjC80R4UF_NCCVxM-138" vertex="1">
          <mxGeometry x="220" width="400" height="60" as="geometry">
            <mxRectangle width="400" height="60" as="alternateBounds" />
          </mxGeometry>
        </mxCell>
        <mxCell id="BWipgjC80R4UF_NCCVxM-142" value="" style="shape=tableRow;horizontal=0;startSize=0;swimlaneHead=0;swimlaneBody=0;top=0;left=0;bottom=0;right=0;collapsible=0;dropTarget=0;fillColor=none;points=[[0,0.5],[1,0.5]];portConstraint=eastwest;strokeColor=inherit;fontSize=24;verticalAlign=top;" parent="BWipgjC80R4UF_NCCVxM-98" vertex="1">
          <mxGeometry y="480" width="620.0000000000005" height="60" as="geometry" />
        </mxCell>
        <mxCell id="BWipgjC80R4UF_NCCVxM-143" value="企业发票" style="shape=partialRectangle;html=1;whiteSpace=wrap;connectable=0;fillColor=none;top=0;left=0;bottom=0;right=0;overflow=hidden;strokeColor=inherit;fontSize=24;verticalAlign=top;" parent="BWipgjC80R4UF_NCCVxM-142" vertex="1">
          <mxGeometry width="110" height="60" as="geometry">
            <mxRectangle width="110" height="60" as="alternateBounds" />
          </mxGeometry>
        </mxCell>
        <mxCell id="BWipgjC80R4UF_NCCVxM-144" value="表名" style="shape=partialRectangle;html=1;whiteSpace=wrap;connectable=0;fillColor=none;top=0;left=0;bottom=0;right=0;align=left;spacingLeft=6;overflow=hidden;strokeColor=inherit;fontSize=24;verticalAlign=top;" parent="BWipgjC80R4UF_NCCVxM-142" vertex="1">
          <mxGeometry x="110" width="110" height="60" as="geometry">
            <mxRectangle width="110" height="60" as="alternateBounds" />
          </mxGeometry>
        </mxCell>
        <mxCell id="BWipgjC80R4UF_NCCVxM-145" value="dfxb_pro_db.dfxb_mrmp_ma_&lt;br&gt;b_s_fpa_m【日增量】" style="shape=partialRectangle;html=1;whiteSpace=wrap;connectable=0;fillColor=none;top=0;left=0;bottom=0;right=0;align=left;spacingLeft=6;overflow=hidden;strokeColor=inherit;fontSize=24;verticalAlign=top;" parent="BWipgjC80R4UF_NCCVxM-142" vertex="1">
          <mxGeometry x="220" width="400" height="60" as="geometry">
            <mxRectangle width="400" height="60" as="alternateBounds" />
          </mxGeometry>
        </mxCell>
        <mxCell id="BWipgjC80R4UF_NCCVxM-150" value="" style="shape=tableRow;horizontal=0;startSize=0;swimlaneHead=0;swimlaneBody=0;top=0;left=0;bottom=0;right=0;collapsible=0;dropTarget=0;fillColor=none;points=[[0,0.5],[1,0.5]];portConstraint=eastwest;strokeColor=inherit;fontSize=24;verticalAlign=top;" parent="BWipgjC80R4UF_NCCVxM-98" vertex="1">
          <mxGeometry y="540" width="620.0000000000005" height="60" as="geometry" />
        </mxCell>
        <mxCell id="BWipgjC80R4UF_NCCVxM-151" value="" style="shape=partialRectangle;html=1;whiteSpace=wrap;connectable=0;fillColor=none;top=0;left=0;bottom=0;right=0;overflow=hidden;strokeColor=inherit;fontSize=24;verticalAlign=top;" parent="BWipgjC80R4UF_NCCVxM-150" vertex="1">
          <mxGeometry width="110" height="60" as="geometry">
            <mxRectangle width="110" height="60" as="alternateBounds" />
          </mxGeometry>
        </mxCell>
        <mxCell id="BWipgjC80R4UF_NCCVxM-152" value="分区筛选" style="shape=partialRectangle;html=1;whiteSpace=wrap;connectable=0;fillColor=none;top=0;left=0;bottom=0;right=0;align=left;spacingLeft=6;overflow=hidden;strokeColor=inherit;fontSize=24;verticalAlign=top;" parent="BWipgjC80R4UF_NCCVxM-150" vertex="1">
          <mxGeometry x="110" width="110" height="60" as="geometry">
            <mxRectangle width="110" height="60" as="alternateBounds" />
          </mxGeometry>
        </mxCell>
        <mxCell id="BWipgjC80R4UF_NCCVxM-153" value="24个月之内，取最新结果。" style="shape=partialRectangle;html=1;whiteSpace=wrap;connectable=0;fillColor=none;top=0;left=0;bottom=0;right=0;align=left;spacingLeft=6;overflow=hidden;strokeColor=inherit;fontSize=24;verticalAlign=top;" parent="BWipgjC80R4UF_NCCVxM-150" vertex="1">
          <mxGeometry x="220" width="400" height="60" as="geometry">
            <mxRectangle width="400" height="60" as="alternateBounds" />
          </mxGeometry>
        </mxCell>
        <mxCell id="BWipgjC80R4UF_NCCVxM-154" value="" style="shape=tableRow;horizontal=0;startSize=0;swimlaneHead=0;swimlaneBody=0;top=0;left=0;bottom=0;right=0;collapsible=0;dropTarget=0;fillColor=none;points=[[0,0.5],[1,0.5]];portConstraint=eastwest;strokeColor=inherit;fontSize=24;verticalAlign=top;" parent="BWipgjC80R4UF_NCCVxM-98" vertex="1">
          <mxGeometry y="600" width="620.0000000000005" height="90" as="geometry" />
        </mxCell>
        <mxCell id="BWipgjC80R4UF_NCCVxM-155" value="企业流水" style="shape=partialRectangle;html=1;whiteSpace=wrap;connectable=0;fillColor=none;top=0;left=0;bottom=0;right=0;overflow=hidden;strokeColor=inherit;fontSize=24;verticalAlign=top;" parent="BWipgjC80R4UF_NCCVxM-154" vertex="1">
          <mxGeometry width="110" height="90" as="geometry">
            <mxRectangle width="110" height="90" as="alternateBounds" />
          </mxGeometry>
        </mxCell>
        <mxCell id="BWipgjC80R4UF_NCCVxM-156" value="表名" style="shape=partialRectangle;html=1;whiteSpace=wrap;connectable=0;fillColor=none;top=0;left=0;bottom=0;right=0;align=left;spacingLeft=6;overflow=hidden;strokeColor=inherit;fontSize=24;verticalAlign=top;" parent="BWipgjC80R4UF_NCCVxM-154" vertex="1">
          <mxGeometry x="110" width="110" height="90" as="geometry">
            <mxRectangle width="110" height="90" as="alternateBounds" />
          </mxGeometry>
        </mxCell>
        <mxCell id="BWipgjC80R4UF_NCCVxM-157" value="dfxb_pro_db.dfxb_mrmp_ma_&lt;br&gt;lsq_model_summary【日增量】" style="shape=partialRectangle;html=1;whiteSpace=wrap;connectable=0;fillColor=none;top=0;left=0;bottom=0;right=0;align=left;spacingLeft=6;overflow=hidden;strokeColor=inherit;fontSize=24;verticalAlign=top;" parent="BWipgjC80R4UF_NCCVxM-154" vertex="1">
          <mxGeometry x="220" width="400" height="90" as="geometry">
            <mxRectangle width="400" height="90" as="alternateBounds" />
          </mxGeometry>
        </mxCell>
        <mxCell id="BWipgjC80R4UF_NCCVxM-162" value="" style="shape=tableRow;horizontal=0;startSize=0;swimlaneHead=0;swimlaneBody=0;top=0;left=0;bottom=0;right=0;collapsible=0;dropTarget=0;fillColor=none;points=[[0,0.5],[1,0.5]];portConstraint=eastwest;strokeColor=inherit;fontSize=24;verticalAlign=top;" parent="BWipgjC80R4UF_NCCVxM-98" vertex="1">
          <mxGeometry y="690" width="620.0000000000005" height="60" as="geometry" />
        </mxCell>
        <mxCell id="BWipgjC80R4UF_NCCVxM-163" value="" style="shape=partialRectangle;html=1;whiteSpace=wrap;connectable=0;fillColor=none;top=0;left=0;bottom=0;right=0;overflow=hidden;strokeColor=inherit;fontSize=24;verticalAlign=top;" parent="BWipgjC80R4UF_NCCVxM-162" vertex="1">
          <mxGeometry width="110" height="60" as="geometry">
            <mxRectangle width="110" height="60" as="alternateBounds" />
          </mxGeometry>
        </mxCell>
        <mxCell id="BWipgjC80R4UF_NCCVxM-164" value="分区筛选" style="shape=partialRectangle;html=1;whiteSpace=wrap;connectable=0;fillColor=none;top=0;left=0;bottom=0;right=0;align=left;spacingLeft=6;overflow=hidden;strokeColor=inherit;fontSize=24;verticalAlign=top;" parent="BWipgjC80R4UF_NCCVxM-162" vertex="1">
          <mxGeometry x="110" width="110" height="60" as="geometry">
            <mxRectangle width="110" height="60" as="alternateBounds" />
          </mxGeometry>
        </mxCell>
        <mxCell id="BWipgjC80R4UF_NCCVxM-165" value="24个月之内，取最新结果。" style="shape=partialRectangle;html=1;whiteSpace=wrap;connectable=0;fillColor=none;top=0;left=0;bottom=0;right=0;align=left;spacingLeft=6;overflow=hidden;strokeColor=inherit;fontSize=24;verticalAlign=top;" parent="BWipgjC80R4UF_NCCVxM-162" vertex="1">
          <mxGeometry x="220" width="400" height="60" as="geometry">
            <mxRectangle width="400" height="60" as="alternateBounds" />
          </mxGeometry>
        </mxCell>
        <mxCell id="BWipgjC80R4UF_NCCVxM-166" value="" style="shape=tableRow;horizontal=0;startSize=0;swimlaneHead=0;swimlaneBody=0;top=0;left=0;bottom=0;right=0;collapsible=0;dropTarget=0;fillColor=none;points=[[0,0.5],[1,0.5]];portConstraint=eastwest;strokeColor=inherit;fontSize=24;verticalAlign=top;" parent="BWipgjC80R4UF_NCCVxM-98" vertex="1">
          <mxGeometry y="750" width="620.0000000000005" height="100" as="geometry" />
        </mxCell>
        <mxCell id="BWipgjC80R4UF_NCCVxM-167" value="企业图谱" style="shape=partialRectangle;html=1;whiteSpace=wrap;connectable=0;fillColor=none;top=0;left=0;bottom=0;right=0;overflow=hidden;strokeColor=inherit;fontSize=24;verticalAlign=top;" parent="BWipgjC80R4UF_NCCVxM-166" vertex="1">
          <mxGeometry width="110" height="100" as="geometry">
            <mxRectangle width="110" height="100" as="alternateBounds" />
          </mxGeometry>
        </mxCell>
        <mxCell id="BWipgjC80R4UF_NCCVxM-168" value="表名" style="shape=partialRectangle;html=1;whiteSpace=wrap;connectable=0;fillColor=none;top=0;left=0;bottom=0;right=0;align=left;spacingLeft=6;overflow=hidden;strokeColor=inherit;fontSize=24;verticalAlign=top;" parent="BWipgjC80R4UF_NCCVxM-166" vertex="1">
          <mxGeometry x="110" width="110" height="100" as="geometry">
            <mxRectangle width="110" height="100" as="alternateBounds" />
          </mxGeometry>
        </mxCell>
        <mxCell id="BWipgjC80R4UF_NCCVxM-169" value="dfxb_pro_db.dfxb_mrmp_ma_b_&lt;br&gt;s_btc_model_summary_m【月全量】" style="shape=partialRectangle;html=1;whiteSpace=wrap;connectable=0;fillColor=none;top=0;left=0;bottom=0;right=0;align=left;spacingLeft=6;overflow=hidden;strokeColor=inherit;fontSize=24;verticalAlign=top;" parent="BWipgjC80R4UF_NCCVxM-166" vertex="1">
          <mxGeometry x="220" width="400" height="100" as="geometry">
            <mxRectangle width="400" height="100" as="alternateBounds" />
          </mxGeometry>
        </mxCell>
        <mxCell id="BWipgjC80R4UF_NCCVxM-174" value="" style="shape=tableRow;horizontal=0;startSize=0;swimlaneHead=0;swimlaneBody=0;top=0;left=0;bottom=0;right=0;collapsible=0;dropTarget=0;fillColor=none;points=[[0,0.5],[1,0.5]];portConstraint=eastwest;strokeColor=inherit;fontSize=24;verticalAlign=top;" parent="BWipgjC80R4UF_NCCVxM-98" vertex="1">
          <mxGeometry y="850" width="620.0000000000005" height="60" as="geometry" />
        </mxCell>
        <mxCell id="BWipgjC80R4UF_NCCVxM-175" value="" style="shape=partialRectangle;html=1;whiteSpace=wrap;connectable=0;fillColor=none;top=0;left=0;bottom=0;right=0;overflow=hidden;strokeColor=inherit;fontSize=24;verticalAlign=top;" parent="BWipgjC80R4UF_NCCVxM-174" vertex="1">
          <mxGeometry width="110" height="60" as="geometry">
            <mxRectangle width="110" height="60" as="alternateBounds" />
          </mxGeometry>
        </mxCell>
        <mxCell id="BWipgjC80R4UF_NCCVxM-176" value="分区筛选" style="shape=partialRectangle;html=1;whiteSpace=wrap;connectable=0;fillColor=none;top=0;left=0;bottom=0;right=0;align=left;spacingLeft=6;overflow=hidden;strokeColor=inherit;fontSize=24;verticalAlign=top;" parent="BWipgjC80R4UF_NCCVxM-174" vertex="1">
          <mxGeometry x="110" width="110" height="60" as="geometry">
            <mxRectangle width="110" height="60" as="alternateBounds" />
          </mxGeometry>
        </mxCell>
        <mxCell id="BWipgjC80R4UF_NCCVxM-177" value="对应月末分区" style="shape=partialRectangle;html=1;whiteSpace=wrap;connectable=0;fillColor=none;top=0;left=0;bottom=0;right=0;align=left;spacingLeft=6;overflow=hidden;strokeColor=inherit;fontSize=24;verticalAlign=top;" parent="BWipgjC80R4UF_NCCVxM-174" vertex="1">
          <mxGeometry x="220" width="400" height="60" as="geometry">
            <mxRectangle width="400" height="60" as="alternateBounds" />
          </mxGeometry>
        </mxCell>
        <mxCell id="BWipgjC80R4UF_NCCVxM-178" value="四 子分主标尺校准" style="shape=table;startSize=50;container=1;collapsible=0;childLayout=tableLayout;fixedRows=1;rowLines=0;fontStyle=0;strokeColor=default;fontSize=24;verticalAlign=top;" parent="WIyWlLk6GJQsqaUBKTNV-1" vertex="1">
          <mxGeometry x="1450" y="320" width="250" height="330" as="geometry" />
        </mxCell>
        <mxCell id="BWipgjC80R4UF_NCCVxM-179" value="" style="shape=tableRow;horizontal=0;startSize=0;swimlaneHead=0;swimlaneBody=0;top=0;left=0;bottom=0;right=0;collapsible=0;dropTarget=0;fillColor=none;points=[[0,0.5],[1,0.5]];portConstraint=eastwest;strokeColor=inherit;fontSize=24;verticalAlign=top;" parent="BWipgjC80R4UF_NCCVxM-178" vertex="1">
          <mxGeometry y="50" width="250" height="50" as="geometry" />
        </mxCell>
        <mxCell id="BWipgjC80R4UF_NCCVxM-180" value="1" style="shape=partialRectangle;html=1;whiteSpace=wrap;connectable=0;fillColor=none;top=0;left=0;bottom=0;right=0;overflow=hidden;pointerEvents=1;strokeColor=inherit;fontSize=24;verticalAlign=top;" parent="BWipgjC80R4UF_NCCVxM-179" vertex="1">
          <mxGeometry width="40" height="50" as="geometry">
            <mxRectangle width="40" height="50" as="alternateBounds" />
          </mxGeometry>
        </mxCell>
        <mxCell id="BWipgjC80R4UF_NCCVxM-181" value="补充企业规模。" style="shape=partialRectangle;html=1;whiteSpace=wrap;connectable=0;fillColor=none;top=0;left=0;bottom=0;right=0;align=left;spacingLeft=6;overflow=hidden;strokeColor=inherit;fontSize=24;verticalAlign=top;" parent="BWipgjC80R4UF_NCCVxM-179" vertex="1">
          <mxGeometry x="40" width="210" height="50" as="geometry">
            <mxRectangle width="210" height="50" as="alternateBounds" />
          </mxGeometry>
        </mxCell>
        <mxCell id="BWipgjC80R4UF_NCCVxM-182" value="" style="shape=tableRow;horizontal=0;startSize=0;swimlaneHead=0;swimlaneBody=0;top=0;left=0;bottom=0;right=0;collapsible=0;dropTarget=0;fillColor=none;points=[[0,0.5],[1,0.5]];portConstraint=eastwest;strokeColor=inherit;fontSize=24;verticalAlign=top;" parent="BWipgjC80R4UF_NCCVxM-178" vertex="1">
          <mxGeometry y="100" width="250" height="90" as="geometry" />
        </mxCell>
        <mxCell id="BWipgjC80R4UF_NCCVxM-183" value="2" style="shape=partialRectangle;html=1;whiteSpace=wrap;connectable=0;fillColor=none;top=0;left=0;bottom=0;right=0;overflow=hidden;strokeColor=inherit;fontSize=24;verticalAlign=top;" parent="BWipgjC80R4UF_NCCVxM-182" vertex="1">
          <mxGeometry width="40" height="90" as="geometry">
            <mxRectangle width="40" height="90" as="alternateBounds" />
          </mxGeometry>
        </mxCell>
        <mxCell id="BWipgjC80R4UF_NCCVxM-184" value="根据企业评分校准公式，重新计算各子分的校准分。" style="shape=partialRectangle;html=1;whiteSpace=wrap;connectable=0;fillColor=none;top=0;left=0;bottom=0;right=0;align=left;spacingLeft=6;overflow=hidden;strokeColor=inherit;fontSize=24;verticalAlign=top;" parent="BWipgjC80R4UF_NCCVxM-182" vertex="1">
          <mxGeometry x="40" width="210" height="90" as="geometry">
            <mxRectangle width="210" height="90" as="alternateBounds" />
          </mxGeometry>
        </mxCell>
        <mxCell id="BWipgjC80R4UF_NCCVxM-185" value="" style="shape=tableRow;horizontal=0;startSize=0;swimlaneHead=0;swimlaneBody=0;top=0;left=0;bottom=0;right=0;collapsible=0;dropTarget=0;fillColor=none;points=[[0,0.5],[1,0.5]];portConstraint=eastwest;strokeColor=inherit;fontSize=24;verticalAlign=top;" parent="BWipgjC80R4UF_NCCVxM-178" vertex="1">
          <mxGeometry y="190" width="250" height="60" as="geometry" />
        </mxCell>
        <mxCell id="BWipgjC80R4UF_NCCVxM-186" value="3" style="shape=partialRectangle;html=1;whiteSpace=wrap;connectable=0;fillColor=none;top=0;left=0;bottom=0;right=0;overflow=hidden;strokeColor=inherit;fontSize=24;verticalAlign=top;" parent="BWipgjC80R4UF_NCCVxM-185" vertex="1">
          <mxGeometry width="40" height="60" as="geometry">
            <mxRectangle width="40" height="60" as="alternateBounds" />
          </mxGeometry>
        </mxCell>
        <mxCell id="BWipgjC80R4UF_NCCVxM-187" value="根据企业规模，调整子分融合权重。" style="shape=partialRectangle;html=1;whiteSpace=wrap;connectable=0;fillColor=none;top=0;left=0;bottom=0;right=0;align=left;spacingLeft=6;overflow=hidden;strokeColor=inherit;fontSize=24;verticalAlign=top;" parent="BWipgjC80R4UF_NCCVxM-185" vertex="1">
          <mxGeometry x="40" width="210" height="60" as="geometry">
            <mxRectangle width="210" height="60" as="alternateBounds" />
          </mxGeometry>
        </mxCell>
        <mxCell id="BWipgjC80R4UF_NCCVxM-188" value="" style="shape=tableRow;horizontal=0;startSize=0;swimlaneHead=0;swimlaneBody=0;top=0;left=0;bottom=0;right=0;collapsible=0;dropTarget=0;fillColor=none;points=[[0,0.5],[1,0.5]];portConstraint=eastwest;strokeColor=inherit;fontSize=24;verticalAlign=top;" parent="BWipgjC80R4UF_NCCVxM-178" vertex="1">
          <mxGeometry y="250" width="250" height="80" as="geometry" />
        </mxCell>
        <mxCell id="BWipgjC80R4UF_NCCVxM-189" value="4" style="shape=partialRectangle;html=1;whiteSpace=wrap;connectable=0;fillColor=none;top=0;left=0;bottom=0;right=0;overflow=hidden;strokeColor=inherit;fontSize=24;verticalAlign=top;" parent="BWipgjC80R4UF_NCCVxM-188" vertex="1">
          <mxGeometry width="40" height="80" as="geometry">
            <mxRectangle width="40" height="80" as="alternateBounds" />
          </mxGeometry>
        </mxCell>
        <mxCell id="BWipgjC80R4UF_NCCVxM-190" value="计算融合模型评分PD。" style="shape=partialRectangle;html=1;whiteSpace=wrap;connectable=0;fillColor=none;top=0;left=0;bottom=0;right=0;align=left;spacingLeft=6;overflow=hidden;strokeColor=inherit;fontSize=24;verticalAlign=top;" parent="BWipgjC80R4UF_NCCVxM-188" vertex="1">
          <mxGeometry x="40" width="210" height="80" as="geometry">
            <mxRectangle width="210" height="80" as="alternateBounds" />
          </mxGeometry>
        </mxCell>
        <mxCell id="BWipgjC80R4UF_NCCVxM-191" value="五 外部评级校准" style="shape=table;startSize=50;container=1;collapsible=0;childLayout=tableLayout;fixedRows=1;rowLines=0;fontStyle=0;strokeColor=default;fontSize=24;verticalAlign=top;" parent="WIyWlLk6GJQsqaUBKTNV-1" vertex="1">
          <mxGeometry x="1765" y="320" width="180" height="150" as="geometry" />
        </mxCell>
        <mxCell id="BWipgjC80R4UF_NCCVxM-192" value="" style="shape=tableRow;horizontal=0;startSize=0;swimlaneHead=0;swimlaneBody=0;top=0;left=0;bottom=0;right=0;collapsible=0;dropTarget=0;fillColor=none;points=[[0,0.5],[1,0.5]];portConstraint=eastwest;strokeColor=inherit;fontSize=24;verticalAlign=top;" parent="BWipgjC80R4UF_NCCVxM-191" vertex="1">
          <mxGeometry y="50" width="180" height="30" as="geometry" />
        </mxCell>
        <mxCell id="BWipgjC80R4UF_NCCVxM-193" value="1" style="shape=partialRectangle;html=1;whiteSpace=wrap;connectable=0;fillColor=none;top=0;left=0;bottom=0;right=0;overflow=hidden;pointerEvents=1;strokeColor=inherit;fontSize=24;verticalAlign=top;" parent="BWipgjC80R4UF_NCCVxM-192" vertex="1">
          <mxGeometry width="40" height="30" as="geometry">
            <mxRectangle width="40" height="30" as="alternateBounds" />
          </mxGeometry>
        </mxCell>
        <mxCell id="BWipgjC80R4UF_NCCVxM-194" value="中国债券发行评级" style="shape=partialRectangle;html=1;whiteSpace=wrap;connectable=0;fillColor=none;top=0;left=0;bottom=0;right=0;align=left;spacingLeft=6;overflow=hidden;strokeColor=inherit;fontSize=24;verticalAlign=top;" parent="BWipgjC80R4UF_NCCVxM-192" vertex="1">
          <mxGeometry x="40" width="140" height="30" as="geometry">
            <mxRectangle width="140" height="30" as="alternateBounds" />
          </mxGeometry>
        </mxCell>
        <mxCell id="BWipgjC80R4UF_NCCVxM-195" value="" style="shape=tableRow;horizontal=0;startSize=0;swimlaneHead=0;swimlaneBody=0;top=0;left=0;bottom=0;right=0;collapsible=0;dropTarget=0;fillColor=none;points=[[0,0.5],[1,0.5]];portConstraint=eastwest;strokeColor=inherit;fontSize=24;verticalAlign=top;" parent="BWipgjC80R4UF_NCCVxM-191" vertex="1">
          <mxGeometry y="80" width="180" height="30" as="geometry" />
        </mxCell>
        <mxCell id="BWipgjC80R4UF_NCCVxM-196" value="2" style="shape=partialRectangle;html=1;whiteSpace=wrap;connectable=0;fillColor=none;top=0;left=0;bottom=0;right=0;overflow=hidden;strokeColor=inherit;fontSize=24;verticalAlign=top;" parent="BWipgjC80R4UF_NCCVxM-195" vertex="1">
          <mxGeometry width="40" height="30" as="geometry">
            <mxRectangle width="40" height="30" as="alternateBounds" />
          </mxGeometry>
        </mxCell>
        <mxCell id="BWipgjC80R4UF_NCCVxM-197" value="中诚信" style="shape=partialRectangle;html=1;whiteSpace=wrap;connectable=0;fillColor=none;top=0;left=0;bottom=0;right=0;align=left;spacingLeft=6;overflow=hidden;strokeColor=inherit;fontSize=24;verticalAlign=top;" parent="BWipgjC80R4UF_NCCVxM-195" vertex="1">
          <mxGeometry x="40" width="140" height="30" as="geometry">
            <mxRectangle width="140" height="30" as="alternateBounds" />
          </mxGeometry>
        </mxCell>
        <mxCell id="BWipgjC80R4UF_NCCVxM-198" value="" style="shape=tableRow;horizontal=0;startSize=0;swimlaneHead=0;swimlaneBody=0;top=0;left=0;bottom=0;right=0;collapsible=0;dropTarget=0;fillColor=none;points=[[0,0.5],[1,0.5]];portConstraint=eastwest;strokeColor=inherit;fontSize=24;verticalAlign=top;" parent="BWipgjC80R4UF_NCCVxM-191" vertex="1">
          <mxGeometry y="110" width="180" height="40" as="geometry" />
        </mxCell>
        <mxCell id="BWipgjC80R4UF_NCCVxM-199" value="3" style="shape=partialRectangle;html=1;whiteSpace=wrap;connectable=0;fillColor=none;top=0;left=0;bottom=0;right=0;overflow=hidden;strokeColor=inherit;fontSize=24;verticalAlign=top;" parent="BWipgjC80R4UF_NCCVxM-198" vertex="1">
          <mxGeometry width="40" height="40" as="geometry">
            <mxRectangle width="40" height="40" as="alternateBounds" />
          </mxGeometry>
        </mxCell>
        <mxCell id="BWipgjC80R4UF_NCCVxM-200" value="大公" style="shape=partialRectangle;html=1;whiteSpace=wrap;connectable=0;fillColor=none;top=0;left=0;bottom=0;right=0;align=left;spacingLeft=6;overflow=hidden;strokeColor=inherit;fontSize=24;verticalAlign=top;" parent="BWipgjC80R4UF_NCCVxM-198" vertex="1">
          <mxGeometry x="40" width="140" height="40" as="geometry">
            <mxRectangle width="140" height="40" as="alternateBounds" />
          </mxGeometry>
        </mxCell>
        <mxCell id="eW1roao2XsK2nCmsk1pP-219" style="edgeStyle=orthogonalEdgeStyle;rounded=0;orthogonalLoop=1;jettySize=auto;html=1;exitX=0.5;exitY=0;exitDx=0;exitDy=0;entryX=0.494;entryY=0.896;entryDx=0;entryDy=0;entryPerimeter=0;shape=flexArrow;" parent="WIyWlLk6GJQsqaUBKTNV-1" source="eW1roao2XsK2nCmsk1pP-214" target="eW1roao2XsK2nCmsk1pP-213" edge="1">
          <mxGeometry relative="1" as="geometry" />
        </mxCell>
        <mxCell id="q32x7xYCcye1hgE4NlCJ-3" value="" style="shape=flexArrow;endArrow=classic;html=1;rounded=0;fontSize=24;verticalAlign=top;" parent="WIyWlLk6GJQsqaUBKTNV-1" edge="1">
          <mxGeometry width="50" height="50" relative="1" as="geometry">
            <mxPoint x="290" y="379.16999999999996" as="sourcePoint" />
            <mxPoint x="360" y="379.16999999999996" as="targetPoint" />
          </mxGeometry>
        </mxCell>
        <mxCell id="q32x7xYCcye1hgE4NlCJ-4" value="" style="shape=flexArrow;endArrow=classic;html=1;rounded=0;fontSize=24;verticalAlign=top;" parent="WIyWlLk6GJQsqaUBKTNV-1" edge="1">
          <mxGeometry width="50" height="50" relative="1" as="geometry">
            <mxPoint x="690" y="379.28999999999996" as="sourcePoint" />
            <mxPoint x="760" y="379.28999999999996" as="targetPoint" />
          </mxGeometry>
        </mxCell>
        <mxCell id="q32x7xYCcye1hgE4NlCJ-5" value="" style="shape=flexArrow;endArrow=classic;html=1;rounded=0;fontSize=24;verticalAlign=top;" parent="WIyWlLk6GJQsqaUBKTNV-1" edge="1">
          <mxGeometry width="50" height="50" relative="1" as="geometry">
            <mxPoint x="1380" y="379.28999999999996" as="sourcePoint" />
            <mxPoint x="1450" y="379.28999999999996" as="targetPoint" />
          </mxGeometry>
        </mxCell>
        <mxCell id="q32x7xYCcye1hgE4NlCJ-6" value="" style="shape=flexArrow;endArrow=classic;html=1;rounded=0;fontSize=24;verticalAlign=top;" parent="WIyWlLk6GJQsqaUBKTNV-1" edge="1">
          <mxGeometry width="50" height="50" relative="1" as="geometry">
            <mxPoint x="1700" y="380" as="sourcePoint" />
            <mxPoint x="1770" y="380" as="targetPoint" />
          </mxGeometry>
        </mxCell>
        <mxCell id="q32x7xYCcye1hgE4NlCJ-9" value="" style="shape=flexArrow;endArrow=classic;html=1;rounded=0;" parent="WIyWlLk6GJQsqaUBKTNV-1" edge="1">
          <mxGeometry width="50" height="50" relative="1" as="geometry">
            <mxPoint x="600" y="-460" as="sourcePoint" />
            <mxPoint x="670" y="-460" as="targetPoint" />
          </mxGeometry>
        </mxCell>
        <mxCell id="q32x7xYCcye1hgE4NlCJ-10" value="" style="shape=flexArrow;endArrow=classic;html=1;rounded=0;" parent="WIyWlLk6GJQsqaUBKTNV-1" edge="1">
          <mxGeometry width="50" height="50" relative="1" as="geometry">
            <mxPoint x="990" y="-460" as="sourcePoint" />
            <mxPoint x="1060" y="-460" as="targetPoint" />
          </mxGeometry>
        </mxCell>
        <mxCell id="q32x7xYCcye1hgE4NlCJ-11" value="" style="shape=flexArrow;endArrow=classic;html=1;rounded=0;fontSize=26;" parent="WIyWlLk6GJQsqaUBKTNV-1" edge="1">
          <mxGeometry width="50" height="50" relative="1" as="geometry">
            <mxPoint x="1659" y="-460" as="sourcePoint" />
            <mxPoint x="1729" y="-460" as="targetPoint" />
          </mxGeometry>
        </mxCell>
        <mxCell id="q32x7xYCcye1hgE4NlCJ-13" style="edgeStyle=orthogonalEdgeStyle;rounded=0;orthogonalLoop=1;jettySize=auto;html=1;exitX=0.5;exitY=0;exitDx=0;exitDy=0;entryX=0.508;entryY=0.863;entryDx=0;entryDy=0;entryPerimeter=0;shape=flexArrow;" parent="WIyWlLk6GJQsqaUBKTNV-1" source="eW1roao2XsK2nCmsk1pP-212" target="eW1roao2XsK2nCmsk1pP-211" edge="1">
          <mxGeometry relative="1" as="geometry" />
        </mxCell>
        <mxCell id="p7HOfpMz6Ps_uLDgcZ0B-32" value="" style="group;fontSize=24;verticalAlign=top;" vertex="1" connectable="0" parent="WIyWlLk6GJQsqaUBKTNV-1">
          <mxGeometry y="1430" width="270" height="380" as="geometry" />
        </mxCell>
        <mxCell id="BWipgjC80R4UF_NCCVxM-15" value="企业工商" style="shape=table;startSize=40;container=1;collapsible=0;childLayout=tableLayout;fixedRows=1;rowLines=0;fontStyle=0;strokeColor=default;fontSize=24;verticalAlign=top;" parent="p7HOfpMz6Ps_uLDgcZ0B-32" vertex="1">
          <mxGeometry y="200" width="270" height="220" as="geometry" />
        </mxCell>
        <mxCell id="BWipgjC80R4UF_NCCVxM-16" value="" style="shape=tableRow;horizontal=0;startSize=0;swimlaneHead=0;swimlaneBody=0;top=0;left=0;bottom=0;right=0;collapsible=0;dropTarget=0;fillColor=none;points=[[0,0.5],[1,0.5]];portConstraint=eastwest;strokeColor=inherit;fontSize=24;verticalAlign=top;" parent="BWipgjC80R4UF_NCCVxM-15" vertex="1">
          <mxGeometry y="40" width="270" height="100" as="geometry" />
        </mxCell>
        <mxCell id="BWipgjC80R4UF_NCCVxM-17" value="1" style="shape=partialRectangle;html=1;whiteSpace=wrap;connectable=0;fillColor=none;top=0;left=0;bottom=0;right=0;overflow=hidden;pointerEvents=1;strokeColor=inherit;fontSize=24;verticalAlign=top;" parent="BWipgjC80R4UF_NCCVxM-16" vertex="1">
          <mxGeometry width="40" height="100" as="geometry">
            <mxRectangle width="40" height="100" as="alternateBounds" />
          </mxGeometry>
        </mxCell>
        <mxCell id="BWipgjC80R4UF_NCCVxM-18" value="实时来源，行内实时元素工商查询接口。" style="shape=partialRectangle;html=1;whiteSpace=wrap;connectable=0;fillColor=none;top=0;left=0;bottom=0;right=0;align=left;spacingLeft=6;overflow=hidden;strokeColor=inherit;fontSize=24;verticalAlign=top;" parent="BWipgjC80R4UF_NCCVxM-16" vertex="1">
          <mxGeometry x="40" width="230" height="100" as="geometry">
            <mxRectangle width="230" height="100" as="alternateBounds" />
          </mxGeometry>
        </mxCell>
        <mxCell id="BWipgjC80R4UF_NCCVxM-56" value="" style="shape=tableRow;horizontal=0;startSize=0;swimlaneHead=0;swimlaneBody=0;top=0;left=0;bottom=0;right=0;collapsible=0;dropTarget=0;fillColor=none;points=[[0,0.5],[1,0.5]];portConstraint=eastwest;strokeColor=inherit;fontSize=24;verticalAlign=top;" parent="BWipgjC80R4UF_NCCVxM-15" vertex="1">
          <mxGeometry y="140" width="270" height="80" as="geometry" />
        </mxCell>
        <mxCell id="BWipgjC80R4UF_NCCVxM-57" value="2" style="shape=partialRectangle;html=1;whiteSpace=wrap;connectable=0;fillColor=none;top=0;left=0;bottom=0;right=0;overflow=hidden;strokeColor=inherit;fontSize=24;verticalAlign=top;" parent="BWipgjC80R4UF_NCCVxM-56" vertex="1">
          <mxGeometry width="40" height="80" as="geometry">
            <mxRectangle width="40" height="80" as="alternateBounds" />
          </mxGeometry>
        </mxCell>
        <mxCell id="BWipgjC80R4UF_NCCVxM-58" value="批量来源，启信宝全量工商数据。" style="shape=partialRectangle;html=1;whiteSpace=wrap;connectable=0;fillColor=none;top=0;left=0;bottom=0;right=0;align=left;spacingLeft=6;overflow=hidden;strokeColor=inherit;fontSize=24;verticalAlign=top;" parent="BWipgjC80R4UF_NCCVxM-56" vertex="1">
          <mxGeometry x="40" width="230" height="80" as="geometry">
            <mxRectangle width="230" height="80" as="alternateBounds" />
          </mxGeometry>
        </mxCell>
        <mxCell id="BWipgjC80R4UF_NCCVxM-61" value="&lt;font style=&quot;font-size: 24px;&quot;&gt;工商子模型&lt;/font&gt;" style="rounded=1;whiteSpace=wrap;html=1;fontSize=24;startSize=30;fontStyle=0;verticalAlign=top;" parent="p7HOfpMz6Ps_uLDgcZ0B-32" vertex="1">
          <mxGeometry x="65" width="120" height="70" as="geometry" />
        </mxCell>
        <mxCell id="BWipgjC80R4UF_NCCVxM-62" value="" style="edgeStyle=orthogonalEdgeStyle;rounded=0;orthogonalLoop=1;jettySize=auto;html=1;fontSize=24;verticalAlign=top;" parent="p7HOfpMz6Ps_uLDgcZ0B-32" target="BWipgjC80R4UF_NCCVxM-61" edge="1">
          <mxGeometry relative="1" as="geometry">
            <mxPoint x="125" y="200" as="sourcePoint" />
          </mxGeometry>
        </mxCell>
        <mxCell id="p7HOfpMz6Ps_uLDgcZ0B-33" value="" style="group;fontSize=24;verticalAlign=top;rounded=0;glass=0;" vertex="1" connectable="0" parent="WIyWlLk6GJQsqaUBKTNV-1">
          <mxGeometry x="323" y="1430" width="230" height="460" as="geometry" />
        </mxCell>
        <mxCell id="BWipgjC80R4UF_NCCVxM-43" value="企业征信" style="shape=table;startSize=40;container=1;collapsible=0;childLayout=tableLayout;fixedRows=1;rowLines=0;fontStyle=0;strokeColor=default;fontSize=24;verticalAlign=top;" parent="p7HOfpMz6Ps_uLDgcZ0B-33" vertex="1">
          <mxGeometry y="200" width="230" height="300" as="geometry" />
        </mxCell>
        <mxCell id="BWipgjC80R4UF_NCCVxM-44" value="" style="shape=tableRow;horizontal=0;startSize=0;swimlaneHead=0;swimlaneBody=0;top=0;left=0;bottom=0;right=0;collapsible=0;dropTarget=0;fillColor=none;points=[[0,0.5],[1,0.5]];portConstraint=eastwest;strokeColor=inherit;fontSize=24;verticalAlign=top;" parent="BWipgjC80R4UF_NCCVxM-43" vertex="1">
          <mxGeometry y="40" width="230" height="100" as="geometry" />
        </mxCell>
        <mxCell id="BWipgjC80R4UF_NCCVxM-45" value="1" style="shape=partialRectangle;html=1;whiteSpace=wrap;connectable=0;fillColor=none;top=0;left=0;bottom=0;right=0;overflow=hidden;pointerEvents=1;strokeColor=inherit;fontSize=24;verticalAlign=top;" parent="BWipgjC80R4UF_NCCVxM-44" vertex="1">
          <mxGeometry width="40" height="100" as="geometry">
            <mxRectangle width="40" height="100" as="alternateBounds" />
          </mxGeometry>
        </mxCell>
        <mxCell id="BWipgjC80R4UF_NCCVxM-46" value="实时来源，人行企业征信查询接口。" style="shape=partialRectangle;html=1;whiteSpace=wrap;connectable=0;fillColor=none;top=0;left=0;bottom=0;right=0;align=left;spacingLeft=6;overflow=hidden;strokeColor=inherit;fontSize=24;verticalAlign=top;" parent="BWipgjC80R4UF_NCCVxM-44" vertex="1">
          <mxGeometry x="40" width="190" height="100" as="geometry">
            <mxRectangle width="190" height="100" as="alternateBounds" />
          </mxGeometry>
        </mxCell>
        <mxCell id="BWipgjC80R4UF_NCCVxM-47" value="" style="shape=tableRow;horizontal=0;startSize=0;swimlaneHead=0;swimlaneBody=0;top=0;left=0;bottom=0;right=0;collapsible=0;dropTarget=0;fillColor=none;points=[[0,0.5],[1,0.5]];portConstraint=eastwest;strokeColor=inherit;fontSize=24;verticalAlign=top;" parent="BWipgjC80R4UF_NCCVxM-43" vertex="1">
          <mxGeometry y="140" width="230" height="160" as="geometry" />
        </mxCell>
        <mxCell id="BWipgjC80R4UF_NCCVxM-48" value="2" style="shape=partialRectangle;html=1;whiteSpace=wrap;connectable=0;fillColor=none;top=0;left=0;bottom=0;right=0;overflow=hidden;strokeColor=inherit;fontSize=24;verticalAlign=top;" parent="BWipgjC80R4UF_NCCVxM-47" vertex="1">
          <mxGeometry width="40" height="160" as="geometry">
            <mxRectangle width="40" height="160" as="alternateBounds" />
          </mxGeometry>
        </mxCell>
        <mxCell id="BWipgjC80R4UF_NCCVxM-49" value="批量来源，外部数据平台edmp落表，将我行查询报告，拆解落表。" style="shape=partialRectangle;html=1;whiteSpace=wrap;connectable=0;fillColor=none;top=0;left=0;bottom=0;right=0;align=left;spacingLeft=6;overflow=hidden;strokeColor=inherit;fontSize=24;verticalAlign=top;" parent="BWipgjC80R4UF_NCCVxM-47" vertex="1">
          <mxGeometry x="40" width="190" height="160" as="geometry">
            <mxRectangle width="190" height="160" as="alternateBounds" />
          </mxGeometry>
        </mxCell>
        <mxCell id="BWipgjC80R4UF_NCCVxM-63" value="&lt;font style=&quot;font-size: 24px;&quot;&gt;征信子模型&lt;/font&gt;" style="rounded=1;whiteSpace=wrap;html=1;fontSize=24;startSize=30;fontStyle=0;verticalAlign=top;" parent="p7HOfpMz6Ps_uLDgcZ0B-33" vertex="1">
          <mxGeometry x="55" width="120" height="70" as="geometry" />
        </mxCell>
        <mxCell id="BWipgjC80R4UF_NCCVxM-64" value="" style="edgeStyle=orthogonalEdgeStyle;rounded=0;orthogonalLoop=1;jettySize=auto;html=1;fontSize=24;verticalAlign=top;" parent="p7HOfpMz6Ps_uLDgcZ0B-33" source="BWipgjC80R4UF_NCCVxM-43" target="BWipgjC80R4UF_NCCVxM-63" edge="1">
          <mxGeometry relative="1" as="geometry" />
        </mxCell>
        <mxCell id="p7HOfpMz6Ps_uLDgcZ0B-34" value="" style="group;fontSize=24;verticalAlign=top;" vertex="1" connectable="0" parent="WIyWlLk6GJQsqaUBKTNV-1">
          <mxGeometry x="626" y="1430" width="230" height="350" as="geometry" />
        </mxCell>
        <mxCell id="eW1roao2XsK2nCmsk1pP-126" value="&lt;font style=&quot;font-size: 24px;&quot;&gt;税务子模型&lt;/font&gt;" style="rounded=1;whiteSpace=wrap;html=1;fontSize=24;startSize=30;fontStyle=0;verticalAlign=top;" parent="p7HOfpMz6Ps_uLDgcZ0B-34" vertex="1">
          <mxGeometry x="55" width="120" height="70" as="geometry" />
        </mxCell>
        <mxCell id="eW1roao2XsK2nCmsk1pP-210" style="edgeStyle=orthogonalEdgeStyle;rounded=0;orthogonalLoop=1;jettySize=auto;html=1;exitX=0.5;exitY=0;exitDx=0;exitDy=0;entryX=0.5;entryY=1;entryDx=0;entryDy=0;fontSize=24;verticalAlign=top;" parent="p7HOfpMz6Ps_uLDgcZ0B-34" source="eW1roao2XsK2nCmsk1pP-131" target="eW1roao2XsK2nCmsk1pP-126" edge="1">
          <mxGeometry relative="1" as="geometry" />
        </mxCell>
        <mxCell id="eW1roao2XsK2nCmsk1pP-131" value="企业税务" style="shape=table;startSize=40;container=1;collapsible=0;childLayout=tableLayout;fixedRows=1;rowLines=0;fontStyle=0;strokeColor=default;fontSize=24;verticalAlign=top;" parent="p7HOfpMz6Ps_uLDgcZ0B-34" vertex="1">
          <mxGeometry y="200" width="230" height="240" as="geometry" />
        </mxCell>
        <mxCell id="eW1roao2XsK2nCmsk1pP-132" value="" style="shape=tableRow;horizontal=0;startSize=0;swimlaneHead=0;swimlaneBody=0;top=0;left=0;bottom=0;right=0;collapsible=0;dropTarget=0;fillColor=none;points=[[0,0.5],[1,0.5]];portConstraint=eastwest;strokeColor=inherit;fontSize=24;verticalAlign=top;" parent="eW1roao2XsK2nCmsk1pP-131" vertex="1">
          <mxGeometry y="40" width="230" height="100" as="geometry" />
        </mxCell>
        <mxCell id="eW1roao2XsK2nCmsk1pP-133" value="1" style="shape=partialRectangle;html=1;whiteSpace=wrap;connectable=0;fillColor=none;top=0;left=0;bottom=0;right=0;overflow=hidden;pointerEvents=1;strokeColor=inherit;fontSize=24;verticalAlign=top;" parent="eW1roao2XsK2nCmsk1pP-132" vertex="1">
          <mxGeometry width="40" height="100" as="geometry">
            <mxRectangle width="40" height="100" as="alternateBounds" />
          </mxGeometry>
        </mxCell>
        <mxCell id="eW1roao2XsK2nCmsk1pP-134" value="实时来源，&lt;span style=&quot;background-color: initial; font-size: 24px;&quot;&gt;行内银税子系统，实时查询。&lt;/span&gt;" style="shape=partialRectangle;html=1;whiteSpace=wrap;connectable=0;fillColor=none;top=0;left=0;bottom=0;right=0;align=left;spacingLeft=6;overflow=hidden;strokeColor=inherit;fontSize=24;verticalAlign=top;" parent="eW1roao2XsK2nCmsk1pP-132" vertex="1">
          <mxGeometry x="40" width="190" height="100" as="geometry">
            <mxRectangle width="190" height="100" as="alternateBounds" />
          </mxGeometry>
        </mxCell>
        <mxCell id="BMe4AKqLwnaeVBArjuhN-16" value="" style="shape=tableRow;horizontal=0;startSize=0;swimlaneHead=0;swimlaneBody=0;top=0;left=0;bottom=0;right=0;collapsible=0;dropTarget=0;fillColor=none;points=[[0,0.5],[1,0.5]];portConstraint=eastwest;strokeColor=inherit;fontSize=24;verticalAlign=top;" parent="eW1roao2XsK2nCmsk1pP-131" vertex="1">
          <mxGeometry y="140" width="230" height="100" as="geometry" />
        </mxCell>
        <mxCell id="BMe4AKqLwnaeVBArjuhN-17" value="2" style="shape=partialRectangle;html=1;whiteSpace=wrap;connectable=0;fillColor=none;top=0;left=0;bottom=0;right=0;overflow=hidden;pointerEvents=1;strokeColor=inherit;fontSize=24;verticalAlign=top;" parent="BMe4AKqLwnaeVBArjuhN-16" vertex="1">
          <mxGeometry width="40" height="100" as="geometry">
            <mxRectangle width="40" height="100" as="alternateBounds" />
          </mxGeometry>
        </mxCell>
        <mxCell id="BMe4AKqLwnaeVBArjuhN-18" value="批量来源，实时加工完，离线落表&lt;span style=&quot;background-color: initial; font-size: 24px;&quot;&gt;。&lt;/span&gt;" style="shape=partialRectangle;html=1;whiteSpace=wrap;connectable=0;fillColor=none;top=0;left=0;bottom=0;right=0;align=left;spacingLeft=6;overflow=hidden;strokeColor=inherit;fontSize=24;verticalAlign=top;" parent="BMe4AKqLwnaeVBArjuhN-16" vertex="1">
          <mxGeometry x="40" width="190" height="100" as="geometry">
            <mxRectangle width="190" height="100" as="alternateBounds" />
          </mxGeometry>
        </mxCell>
        <mxCell id="p7HOfpMz6Ps_uLDgcZ0B-35" value="" style="group;fontSize=24;verticalAlign=top;" vertex="1" connectable="0" parent="WIyWlLk6GJQsqaUBKTNV-1">
          <mxGeometry x="929" y="1430" width="230" height="350" as="geometry" />
        </mxCell>
        <mxCell id="eW1roao2XsK2nCmsk1pP-127" value="&lt;font style=&quot;font-size: 24px;&quot;&gt;发票子模型&lt;/font&gt;" style="rounded=1;whiteSpace=wrap;html=1;fontSize=24;startSize=30;fontStyle=0;verticalAlign=top;" parent="p7HOfpMz6Ps_uLDgcZ0B-35" vertex="1">
          <mxGeometry x="55" width="120" height="70" as="geometry" />
        </mxCell>
        <mxCell id="eW1roao2XsK2nCmsk1pP-209" style="edgeStyle=orthogonalEdgeStyle;rounded=0;orthogonalLoop=1;jettySize=auto;html=1;exitX=0.5;exitY=0;exitDx=0;exitDy=0;entryX=0.5;entryY=1;entryDx=0;entryDy=0;fontSize=24;verticalAlign=top;" parent="p7HOfpMz6Ps_uLDgcZ0B-35" source="eW1roao2XsK2nCmsk1pP-157" target="eW1roao2XsK2nCmsk1pP-127" edge="1">
          <mxGeometry relative="1" as="geometry" />
        </mxCell>
        <mxCell id="eW1roao2XsK2nCmsk1pP-157" value="线上发票" style="shape=table;startSize=40;container=1;collapsible=0;childLayout=tableLayout;fixedRows=1;rowLines=0;fontStyle=0;strokeColor=default;fontSize=24;verticalAlign=top;" parent="p7HOfpMz6Ps_uLDgcZ0B-35" vertex="1">
          <mxGeometry y="200" width="230" height="250" as="geometry" />
        </mxCell>
        <mxCell id="eW1roao2XsK2nCmsk1pP-158" value="" style="shape=tableRow;horizontal=0;startSize=0;swimlaneHead=0;swimlaneBody=0;top=0;left=0;bottom=0;right=0;collapsible=0;dropTarget=0;fillColor=none;points=[[0,0.5],[1,0.5]];portConstraint=eastwest;strokeColor=inherit;fontSize=24;verticalAlign=top;" parent="eW1roao2XsK2nCmsk1pP-157" vertex="1">
          <mxGeometry y="40" width="230" height="100" as="geometry" />
        </mxCell>
        <mxCell id="eW1roao2XsK2nCmsk1pP-159" value="1" style="shape=partialRectangle;html=1;whiteSpace=wrap;connectable=0;fillColor=none;top=0;left=0;bottom=0;right=0;overflow=hidden;pointerEvents=1;strokeColor=inherit;fontSize=24;verticalAlign=top;" parent="eW1roao2XsK2nCmsk1pP-158" vertex="1">
          <mxGeometry width="40" height="100" as="geometry">
            <mxRectangle width="40" height="100" as="alternateBounds" />
          </mxGeometry>
        </mxCell>
        <mxCell id="eW1roao2XsK2nCmsk1pP-160" value="实时来源，发票数据供应商。" style="shape=partialRectangle;html=1;whiteSpace=wrap;connectable=0;fillColor=none;top=0;left=0;bottom=0;right=0;align=left;spacingLeft=6;overflow=hidden;strokeColor=inherit;fontSize=24;verticalAlign=top;" parent="eW1roao2XsK2nCmsk1pP-158" vertex="1">
          <mxGeometry x="40" width="190" height="100" as="geometry">
            <mxRectangle width="190" height="100" as="alternateBounds" />
          </mxGeometry>
        </mxCell>
        <mxCell id="BMe4AKqLwnaeVBArjuhN-19" value="" style="shape=tableRow;horizontal=0;startSize=0;swimlaneHead=0;swimlaneBody=0;top=0;left=0;bottom=0;right=0;collapsible=0;dropTarget=0;fillColor=none;points=[[0,0.5],[1,0.5]];portConstraint=eastwest;strokeColor=inherit;fontSize=24;verticalAlign=top;" parent="eW1roao2XsK2nCmsk1pP-157" vertex="1">
          <mxGeometry y="140" width="230" height="110" as="geometry" />
        </mxCell>
        <mxCell id="BMe4AKqLwnaeVBArjuhN-20" value="2" style="shape=partialRectangle;html=1;whiteSpace=wrap;connectable=0;fillColor=none;top=0;left=0;bottom=0;right=0;overflow=hidden;pointerEvents=1;strokeColor=inherit;fontSize=24;verticalAlign=top;" parent="BMe4AKqLwnaeVBArjuhN-19" vertex="1">
          <mxGeometry width="40" height="110" as="geometry">
            <mxRectangle width="40" height="110" as="alternateBounds" />
          </mxGeometry>
        </mxCell>
        <mxCell id="BMe4AKqLwnaeVBArjuhN-21" value="批量来源，实时加工完，离线落表&lt;span style=&quot;background-color: initial; font-size: 24px;&quot;&gt;。&lt;/span&gt;" style="shape=partialRectangle;html=1;whiteSpace=wrap;connectable=0;fillColor=none;top=0;left=0;bottom=0;right=0;align=left;spacingLeft=6;overflow=hidden;strokeColor=inherit;fontSize=24;verticalAlign=top;" parent="BMe4AKqLwnaeVBArjuhN-19" vertex="1">
          <mxGeometry x="40" width="190" height="110" as="geometry">
            <mxRectangle width="190" height="110" as="alternateBounds" />
          </mxGeometry>
        </mxCell>
        <mxCell id="p7HOfpMz6Ps_uLDgcZ0B-36" value="" style="group;fontSize=24;verticalAlign=top;" vertex="1" connectable="0" parent="WIyWlLk6GJQsqaUBKTNV-1">
          <mxGeometry x="1232" y="1430" width="230" height="350" as="geometry" />
        </mxCell>
        <mxCell id="eW1roao2XsK2nCmsk1pP-128" value="&lt;font style=&quot;font-size: 24px;&quot;&gt;图子模型&lt;/font&gt;" style="rounded=1;whiteSpace=wrap;html=1;fontSize=24;startSize=30;fontStyle=0;verticalAlign=top;" parent="p7HOfpMz6Ps_uLDgcZ0B-36" vertex="1">
          <mxGeometry x="55" width="120" height="70" as="geometry" />
        </mxCell>
        <mxCell id="eW1roao2XsK2nCmsk1pP-208" style="edgeStyle=orthogonalEdgeStyle;rounded=0;orthogonalLoop=1;jettySize=auto;html=1;exitX=0.5;exitY=0;exitDx=0;exitDy=0;entryX=0.5;entryY=1;entryDx=0;entryDy=0;fontSize=24;verticalAlign=top;" parent="p7HOfpMz6Ps_uLDgcZ0B-36" source="eW1roao2XsK2nCmsk1pP-183" target="eW1roao2XsK2nCmsk1pP-128" edge="1">
          <mxGeometry relative="1" as="geometry" />
        </mxCell>
        <mxCell id="eW1roao2XsK2nCmsk1pP-183" value="图子模型" style="shape=table;startSize=40;container=1;collapsible=0;childLayout=tableLayout;fixedRows=1;rowLines=0;fontStyle=0;strokeColor=default;fontSize=24;verticalAlign=top;" parent="p7HOfpMz6Ps_uLDgcZ0B-36" vertex="1">
          <mxGeometry y="200" width="230" height="210" as="geometry" />
        </mxCell>
        <mxCell id="eW1roao2XsK2nCmsk1pP-184" value="" style="shape=tableRow;horizontal=0;startSize=0;swimlaneHead=0;swimlaneBody=0;top=0;left=0;bottom=0;right=0;collapsible=0;dropTarget=0;fillColor=none;points=[[0,0.5],[1,0.5]];portConstraint=eastwest;strokeColor=inherit;fontSize=24;verticalAlign=top;" parent="eW1roao2XsK2nCmsk1pP-183" vertex="1">
          <mxGeometry y="40" width="230" height="170" as="geometry" />
        </mxCell>
        <mxCell id="eW1roao2XsK2nCmsk1pP-185" value="1" style="shape=partialRectangle;html=1;whiteSpace=wrap;connectable=0;fillColor=none;top=0;left=0;bottom=0;right=0;overflow=hidden;pointerEvents=1;strokeColor=inherit;fontSize=24;verticalAlign=top;" parent="eW1roao2XsK2nCmsk1pP-184" vertex="1">
          <mxGeometry width="40" height="170" as="geometry">
            <mxRectangle width="40" height="170" as="alternateBounds" />
          </mxGeometry>
        </mxCell>
        <mxCell id="eW1roao2XsK2nCmsk1pP-186" value="批量来源，取行内一、二、三度股权穿透表和征信、财务特征表。" style="shape=partialRectangle;html=1;whiteSpace=wrap;connectable=0;fillColor=none;top=0;left=0;bottom=0;right=0;align=left;spacingLeft=6;overflow=hidden;strokeColor=inherit;fontSize=24;verticalAlign=top;" parent="eW1roao2XsK2nCmsk1pP-184" vertex="1">
          <mxGeometry x="40" width="190" height="170" as="geometry">
            <mxRectangle width="190" height="170" as="alternateBounds" />
          </mxGeometry>
        </mxCell>
        <mxCell id="p7HOfpMz6Ps_uLDgcZ0B-37" value="" style="group;fontSize=24;verticalAlign=top;" vertex="1" connectable="0" parent="WIyWlLk6GJQsqaUBKTNV-1">
          <mxGeometry x="1535" y="1430" width="230" height="290" as="geometry" />
        </mxCell>
        <mxCell id="eW1roao2XsK2nCmsk1pP-129" value="&lt;font style=&quot;font-size: 24px;&quot;&gt;财务内评模型&lt;/font&gt;" style="rounded=1;whiteSpace=wrap;html=1;fontSize=24;startSize=30;fontStyle=0;verticalAlign=top;" parent="p7HOfpMz6Ps_uLDgcZ0B-37" vertex="1">
          <mxGeometry x="55" width="120" height="70" as="geometry" />
        </mxCell>
        <mxCell id="eW1roao2XsK2nCmsk1pP-207" style="edgeStyle=orthogonalEdgeStyle;rounded=0;orthogonalLoop=1;jettySize=auto;html=1;exitX=0.5;exitY=0;exitDx=0;exitDy=0;entryX=0.5;entryY=1;entryDx=0;entryDy=0;fontSize=24;verticalAlign=top;" parent="p7HOfpMz6Ps_uLDgcZ0B-37" source="eW1roao2XsK2nCmsk1pP-170" target="eW1roao2XsK2nCmsk1pP-129" edge="1">
          <mxGeometry relative="1" as="geometry" />
        </mxCell>
        <mxCell id="eW1roao2XsK2nCmsk1pP-170" value="财务内评" style="shape=table;startSize=40;container=1;collapsible=0;childLayout=tableLayout;fixedRows=1;rowLines=0;fontStyle=0;strokeColor=default;fontSize=24;verticalAlign=top;" parent="p7HOfpMz6Ps_uLDgcZ0B-37" vertex="1">
          <mxGeometry y="200" width="230" height="140" as="geometry" />
        </mxCell>
        <mxCell id="eW1roao2XsK2nCmsk1pP-171" value="" style="shape=tableRow;horizontal=0;startSize=0;swimlaneHead=0;swimlaneBody=0;top=0;left=0;bottom=0;right=0;collapsible=0;dropTarget=0;fillColor=none;points=[[0,0.5],[1,0.5]];portConstraint=eastwest;strokeColor=inherit;fontSize=24;verticalAlign=top;" parent="eW1roao2XsK2nCmsk1pP-170" vertex="1">
          <mxGeometry y="40" width="230" height="100" as="geometry" />
        </mxCell>
        <mxCell id="eW1roao2XsK2nCmsk1pP-172" value="1" style="shape=partialRectangle;html=1;whiteSpace=wrap;connectable=0;fillColor=none;top=0;left=0;bottom=0;right=0;overflow=hidden;pointerEvents=1;strokeColor=inherit;fontSize=24;verticalAlign=top;" parent="eW1roao2XsK2nCmsk1pP-171" vertex="1">
          <mxGeometry width="40" height="100" as="geometry">
            <mxRectangle width="40" height="100" as="alternateBounds" />
          </mxGeometry>
        </mxCell>
        <mxCell id="eW1roao2XsK2nCmsk1pP-173" value="批量来源，内评结果表，直接获取结果。" style="shape=partialRectangle;html=1;whiteSpace=wrap;connectable=0;fillColor=none;top=0;left=0;bottom=0;right=0;align=left;spacingLeft=6;overflow=hidden;strokeColor=inherit;fontSize=24;verticalAlign=top;" parent="eW1roao2XsK2nCmsk1pP-171" vertex="1">
          <mxGeometry x="40" width="190" height="100" as="geometry">
            <mxRectangle width="190" height="100" as="alternateBounds" />
          </mxGeometry>
        </mxCell>
        <mxCell id="p7HOfpMz6Ps_uLDgcZ0B-49" value="" style="group;fontSize=24;verticalAlign=top;" vertex="1" connectable="0" parent="WIyWlLk6GJQsqaUBKTNV-1">
          <mxGeometry x="1838" y="1430" width="230" height="290" as="geometry" />
        </mxCell>
        <mxCell id="p7HOfpMz6Ps_uLDgcZ0B-41" value="&lt;font style=&quot;font-size: 24px;&quot;&gt;流水子模型&lt;/font&gt;" style="rounded=1;whiteSpace=wrap;html=1;fontSize=24;startSize=30;fontStyle=0;verticalAlign=top;" vertex="1" parent="p7HOfpMz6Ps_uLDgcZ0B-49">
          <mxGeometry x="55" width="120" height="70" as="geometry" />
        </mxCell>
        <mxCell id="p7HOfpMz6Ps_uLDgcZ0B-42" style="edgeStyle=orthogonalEdgeStyle;rounded=0;orthogonalLoop=1;jettySize=auto;html=1;exitX=0.5;exitY=0;exitDx=0;exitDy=0;entryX=0.5;entryY=1;entryDx=0;entryDy=0;fontSize=24;verticalAlign=top;" edge="1" parent="p7HOfpMz6Ps_uLDgcZ0B-49" source="p7HOfpMz6Ps_uLDgcZ0B-43" target="p7HOfpMz6Ps_uLDgcZ0B-41">
          <mxGeometry relative="1" as="geometry" />
        </mxCell>
        <mxCell id="p7HOfpMz6Ps_uLDgcZ0B-43" value="流水模型" style="shape=table;startSize=40;container=1;collapsible=0;childLayout=tableLayout;fixedRows=1;rowLines=0;fontStyle=0;strokeColor=default;fontSize=24;verticalAlign=top;" vertex="1" parent="p7HOfpMz6Ps_uLDgcZ0B-49">
          <mxGeometry y="200" width="230" height="110" as="geometry" />
        </mxCell>
        <mxCell id="p7HOfpMz6Ps_uLDgcZ0B-44" value="" style="shape=tableRow;horizontal=0;startSize=0;swimlaneHead=0;swimlaneBody=0;top=0;left=0;bottom=0;right=0;collapsible=0;dropTarget=0;fillColor=none;points=[[0,0.5],[1,0.5]];portConstraint=eastwest;strokeColor=inherit;fontSize=24;verticalAlign=top;" vertex="1" parent="p7HOfpMz6Ps_uLDgcZ0B-43">
          <mxGeometry y="40" width="230" height="70" as="geometry" />
        </mxCell>
        <mxCell id="p7HOfpMz6Ps_uLDgcZ0B-45" value="1" style="shape=partialRectangle;html=1;whiteSpace=wrap;connectable=0;fillColor=none;top=0;left=0;bottom=0;right=0;overflow=hidden;pointerEvents=1;strokeColor=inherit;fontSize=24;verticalAlign=top;" vertex="1" parent="p7HOfpMz6Ps_uLDgcZ0B-44">
          <mxGeometry width="40" height="70" as="geometry">
            <mxRectangle width="40" height="70" as="alternateBounds" />
          </mxGeometry>
        </mxCell>
        <mxCell id="p7HOfpMz6Ps_uLDgcZ0B-46" value="批量来源，行内流水数据。" style="shape=partialRectangle;html=1;whiteSpace=wrap;connectable=0;fillColor=none;top=0;left=0;bottom=0;right=0;align=left;spacingLeft=6;overflow=hidden;strokeColor=inherit;fontSize=24;verticalAlign=top;" vertex="1" parent="p7HOfpMz6Ps_uLDgcZ0B-44">
          <mxGeometry x="40" width="190" height="70" as="geometry">
            <mxRectangle width="190" height="70" as="alternateBounds" />
          </mxGeometry>
        </mxCell>
        <mxCell id="p7HOfpMz6Ps_uLDgcZ0B-56" value="" style="group" vertex="1" connectable="0" parent="WIyWlLk6GJQsqaUBKTNV-1">
          <mxGeometry x="590" y="-980" width="560" height="61" as="geometry" />
        </mxCell>
        <mxCell id="p7HOfpMz6Ps_uLDgcZ0B-52" value="" style="group" vertex="1" connectable="0" parent="p7HOfpMz6Ps_uLDgcZ0B-56">
          <mxGeometry x="20" width="540" height="61" as="geometry" />
        </mxCell>
        <mxCell id="p7HOfpMz6Ps_uLDgcZ0B-50" value="&lt;font style=&quot;font-size: 36px;&quot;&gt;企业睿分批量计算框架&lt;/font&gt;" style="rounded=1;whiteSpace=wrap;html=1;" vertex="1" parent="p7HOfpMz6Ps_uLDgcZ0B-52">
          <mxGeometry x="-70" y="1" width="610" height="60" as="geometry" />
        </mxCell>
        <mxCell id="p7HOfpMz6Ps_uLDgcZ0B-51" value="" style="shape=image;html=1;verticalLabelPosition=bottom;verticalAlign=top;imageAspect=1;aspect=fixed;image=img/clipart/Gear_128x128.png" vertex="1" parent="p7HOfpMz6Ps_uLDgcZ0B-56">
          <mxGeometry width="52" height="61" as="geometry" />
        </mxCell>
      </root>
    </mxGraphModel>
  </diagram>
</mxfile>
